<ttFont>
<head>
    <!-- Most of this table will be recalculated by the compiler -->
    <tableVersion value="1.0"/>
    <fontRevision value="0.113"/>
    <checkSumAdjustment value="0x4df647d5"/>
    <magicNumber value="0x5f0f3cf5"/>
    <flags value="00000000 00000011"/>
    <unitsPerEm value="1000"/>
    <created value="Fri May  7 21:08:01 2010"/>
    <modified value="Thu Jan  1 00:00:00 1970"/>
    <xMin value="-581"/>
    <yMin value="-900"/>
    <xMax value="11467"/>
    <yMax value="1815"/>
    <macStyle value="00000000 00000000"/>
    <lowestRecPPEM value="6"/>
    <fontDirectionHint value="2"/>
    <indexToLocFormat value="0"/>
    <glyphDataFormat value="0"/>
  </head>
    <TTGlyph name="glyph00007" xMin="-118" yMin="422" xMax="111" yMax="679">
      <contour>
        <pt x="74" y="480" on="1"/>
        <pt x="47" y="475" on="0"/>
        <pt x="8" y="467" on="0"/>
        <pt x="-3" y="463" on="1"/>
        <pt x="-14" y="459" on="0"/>
        <pt x="-56" y="442" on="0"/>
        <pt x="-87" y="428" on="1"/>
        <pt x="-100" y="422" on="0"/>
        <pt x="-106" y="432" on="1"/>
        <pt x="-118" y="450" on="0"/>
        <pt x="-67" y="481" on="1"/>
        <pt x="-104" y="499" on="0"/>
        <pt x="-109" y="523" on="1"/>
        <pt x="-117" y="565" on="0"/>
        <pt x="-75" y="622" on="1"/>
        <pt x="-33" y="679" on="0"/>
        <pt x="14" y="675" on="1"/>
        <pt x="44" y="672" on="0"/>
        <pt x="41" y="641" on="1"/>
        <pt x="38" y="610" on="0"/>
        <pt x="23" y="589" on="1"/>
        <pt x="9" y="569" on="0"/>
        <pt x="-1" y="584" on="1"/>
        <pt x="-12" y="602" on="0"/>
        <pt x="-31" y="603" on="1"/>
        <pt x="-51" y="605" on="0"/>
        <pt x="-62" y="591" on="1"/>
        <pt x="-74" y="576" on="0"/>
        <pt x="-61" y="565" on="1"/>
        <pt x="-28" y="534" on="0"/>
        <pt x="37" y="532" on="1"/>
        <pt x="42" y="532" on="0"/>
        <pt x="57" y="535" on="0"/>
        <pt x="67" y="537" on="1"/>
        <pt x="78" y="539" on="0"/>
        <pt x="92" y="542" on="0"/>
        <pt x="96" y="542" on="1"/>
        <pt x="105" y="542" on="0"/>
        <pt x="108" y="535" on="1"/>
        <pt x="111" y="529" on="0"/>
        <pt x="109" y="524" on="1"/>
        <pt x="89" y="483" on="0"/>
      </contour>
    </TTGlyph>
    <TTGlyph name="glyph00008" xMin="39" yMin="0" xMax="256" yMax="727">
      <contour>
        <pt x="77" y="720" on="1"/>
        <pt x="81" y="727" on="0"/>
        <pt x="84" y="726" on="1"/>
        <pt x="89" y="726" on="0"/>
        <pt x="92" y="705" on="1"/>
        <pt x="110" y="550" on="0"/>
        <pt x="116" y="440" on="1"/>
        <pt x="121" y="336" on="0"/>
        <pt x="128" y="210" on="0"/>
        <pt x="129" y="188" on="1"/>
        <pt x="136" y="96" on="0"/>
        <pt x="229" y="90" on="1"/>
        <pt x="256" y="88" on="0"/>
        <pt x="250" y="54" on="1"/>
        <pt x="241" y="0" on="0"/>
        <pt x="229" y="0" on="1"/>
        <pt x="98" y="0" on="0"/>
        <pt x="89" y="122" on="1"/>
        <pt x="85" y="173" on="0"/>
        <pt x="80" y="276" on="0"/>
        <pt x="78" y="328" on="1"/>
        <pt x="75" y="432" on="0"/>
        <pt x="57" y="561" on="0"/>
        <pt x="42" y="643" on="1"/>
        <pt x="39" y="658" on="0"/>
        <pt x="45" y="668" on="1"/>
      </contour>
    </TTGlyph>
    <TTGlyph name="glyph00009" xMin="58" yMin="-5" xMax="177" yMax="719">
      <contour>
        <pt x="89" y="670" on="1"/>
        <pt x="110" y="719" on="0"/>
        <pt x="116" y="672" on="1"/>
        <pt x="139" y="427" on="1"/>
        <pt x="177" y="96" on="0"/>
        <pt x="130" y="7" on="1"/>
        <pt x="123" y="-5" on="0"/>
        <pt x="119" y="1" on="1"/>
        <pt x="115" y="6" on="0"/>
        <pt x="115" y="18" on="1"/>
        <pt x="117" y="102" on="0"/>
        <pt x="103" y="207" on="1"/>
        <pt x="103" y="211" on="0"/>
        <pt x="82" y="397" on="1"/>
        <pt x="60" y="578" on="1"/>
        <pt x="58" y="598" on="0"/>
        <pt x="64" y="612" on="1"/>
      </contour>
    </TTGlyph>
    <TTGlyph name="glyph00010" xMin="53" yMin="-541" xMax="754" yMax="260">
      <contour>
        <pt x="209" y="260" on="1"/>
        <pt x="229" y="260" on="0"/>
        <pt x="287" y="254" on="0"/>
        <pt x="327" y="247" on="1"/>
        <pt x="477" y="221" on="0"/>
        <pt x="611" y="247" on="1"/>
        <pt x="640" y="253" on="0"/>
        <pt x="628" y="227" on="1"/>
        <pt x="605" y="175" on="1"/>
        <pt x="601" y="167" on="0"/>
        <pt x="594" y="166" on="1"/>
        <pt x="558" y="162" on="0"/>
        <pt x="498" y="151" on="0"/>
        <pt x="472" y="146" on="1"/>
        <pt x="478" y="123" on="0"/>
        <pt x="499" y="110" on="1"/>
        <pt x="545" y="81" on="0"/>
        <pt x="640" y="90" on="1"/>
        <pt x="659" y="92" on="0"/>
        <pt x="663" y="68" on="1"/>
        <pt x="667" y="45" on="0"/>
        <pt x="660" y="23" on="1"/>
        <pt x="653" y="2" on="0"/>
        <pt x="640" y="0" on="1"/>
        <pt x="456" y="-10" on="0"/>
        <pt x="435" y="69" on="1"/>
        <pt x="426" y="104" on="0"/>
        <pt x="432" y="138" on="1"/>
        <pt x="326" y="113" on="0"/>
        <pt x="262" y="71" on="1"/>
        <pt x="181" y="18" on="0"/>
        <pt x="143" y="-62" on="1"/>
        <pt x="103" y="-145" on="0"/>
        <pt x="115" y="-218" on="1"/>
        <pt x="133" y="-337" on="0"/>
        <pt x="254" y="-397" on="1"/>
        <pt x="336" y="-436" on="0"/>
        <pt x="601" y="-414" on="1"/>
        <pt x="666" y="-409" on="0"/>
        <pt x="731" y="-403" on="0"/>
        <pt x="732" y="-403" on="1"/>
        <pt x="754" y="-402" on="0"/>
        <pt x="754" y="-412" on="1"/>
        <pt x="754" y="-423" on="0"/>
        <pt x="727" y="-432" on="1"/>
        <pt x="684" y="-445" on="0"/>
        <pt x="645" y="-471" on="1"/>
        <pt x="626" y="-484" on="0"/>
        <pt x="602" y="-500" on="0"/>
        <pt x="597" y="-502" on="1"/>
        <pt x="593" y="-504" on="0"/>
        <pt x="585" y="-506" on="0"/>
        <pt x="580" y="-507" on="1"/>
        <pt x="274" y="-541" on="0"/>
        <pt x="155" y="-451" on="1"/>
        <pt x="53" y="-375" on="0"/>
        <pt x="64" y="-225" on="1"/>
        <pt x="84" y="47" on="0"/>
        <pt x="314" y="158" on="1"/>
        <pt x="189" y="188" on="0"/>
        <pt x="101" y="144" on="1"/>
        <pt x="95" y="141" on="0"/>
        <pt x="89" y="144" on="1"/>
        <pt x="83" y="147" on="0"/>
        <pt x="83" y="151" on="1"/>
        <pt x="86" y="258" on="0"/>
      </contour>
    </TTGlyph>
    <TTGlyph name="glyph00011" xMin="-21" yMin="0" xMax="598" yMax="313">
      <contour>
        <pt x="6" y="218" on="1"/>
        <pt x="14" y="250" on="0"/>
        <pt x="46" y="281" on="1"/>
        <pt x="80" y="313" on="0"/>
        <pt x="117" y="313" on="1"/>
        <pt x="155" y="313" on="0"/>
        <pt x="291" y="256" on="1"/>
        <pt x="316" y="246" on="0"/>
        <pt x="380" y="229" on="0"/>
        <pt x="418" y="221" on="1"/>
        <pt x="495" y="206" on="0"/>
        <pt x="576" y="212" on="1"/>
        <pt x="598" y="213" on="0"/>
        <pt x="589" y="194" on="1"/>
        <pt x="561" y="133" on="1"/>
        <pt x="555" y="121" on="0"/>
        <pt x="540" y="124" on="1"/>
        <pt x="427" y="143" on="0"/>
        <pt x="326" y="113" on="1"/>
        <pt x="202" y="72" on="0"/>
        <pt x="128" y="36" on="1"/>
        <pt x="56" y="0" on="0"/>
        <pt x="0" y="0" on="1"/>
        <pt x="-6" y="0" on="0"/>
        <pt x="-10" y="10" on="1"/>
        <pt x="-21" y="40" on="0"/>
        <pt x="-15" y="65" on="1"/>
        <pt x="-9" y="88" on="0"/>
        <pt x="0" y="90" on="1"/>
        <pt x="72" y="95" on="0"/>
        <pt x="204" y="132" on="0"/>
        <pt x="265" y="163" on="1"/>
        <pt x="133" y="239" on="0"/>
        <pt x="22" y="204" on="1"/>
        <pt x="14" y="201" on="0"/>
        <pt x="9" y="206" on="1"/>
        <pt x="5" y="211" on="0"/>
      </contour>
    </TTGlyph>
    <TTGlyph name="glyph00012" xMin="28" yMin="-534" xMax="759" yMax="261">
      <contour>
        <pt x="633" y="226" on="1"/>
        <pt x="609" y="172" on="1"/>
        <pt x="605" y="164" on="0"/>
        <pt x="598" y="163" on="1"/>
        <pt x="358" y="132" on="0"/>
        <pt x="263" y="69" on="1"/>
        <pt x="76" y="-54" on="0"/>
        <pt x="116" y="-228" on="1"/>
        <pt x="139" y="-324" on="0"/>
        <pt x="260" y="-378" on="1"/>
        <pt x="327" y="-407" on="0"/>
        <pt x="469" y="-416" on="1"/>
        <pt x="540" y="-420" on="0"/>
        <pt x="674" y="-418" on="0"/>
        <pt x="735" y="-413" on="1"/>
        <pt x="751" y="-411" on="0"/>
        <pt x="755" y="-417" on="1"/>
        <pt x="759" y="-423" on="0"/>
        <pt x="755" y="-430" on="1"/>
        <pt x="753" y="-434" on="0"/>
        <pt x="746" y="-437" on="0"/>
        <pt x="742" y="-439" on="1"/>
        <pt x="681" y="-457" on="0"/>
        <pt x="647" y="-478" on="1"/>
        <pt x="622" y="-494" on="0"/>
        <pt x="589" y="-508" on="0"/>
        <pt x="583" y="-509" on="1"/>
        <pt x="289" y="-534" on="0"/>
        <pt x="159" y="-440" on="1"/>
        <pt x="28" y="-345" on="0"/>
        <pt x="75" y="-142" on="1"/>
        <pt x="122" y="63" on="0"/>
        <pt x="317" y="155" on="1"/>
        <pt x="184" y="188" on="0"/>
        <pt x="115" y="148" on="1"/>
        <pt x="108" y="145" on="0"/>
        <pt x="103" y="146" on="1"/>
        <pt x="98" y="147" on="0"/>
        <pt x="98" y="153" on="1"/>
        <pt x="100" y="178" on="0"/>
        <pt x="108" y="202" on="1"/>
        <pt x="126" y="255" on="0"/>
        <pt x="204" y="259" on="1"/>
        <pt x="243" y="261" on="0"/>
        <pt x="327" y="244" on="1"/>
        <pt x="411" y="227" on="0"/>
        <pt x="470" y="229" on="1"/>
        <pt x="499" y="230" on="0"/>
        <pt x="571" y="237" on="0"/>
        <pt x="614" y="244" on="1"/>
        <pt x="643" y="248" on="0"/>
      </contour>
    </TTGlyph>
    <TTGlyph name="glyph00013" xMin="-28" yMin="-5" xMax="650" yMax="313">
      <contour>
        <pt x="139" y="312" on="1"/>
        <pt x="161" y="313" on="0"/>
        <pt x="284" y="264" on="1"/>
        <pt x="349" y="238" on="0"/>
        <pt x="433" y="226" on="1"/>
        <pt x="520" y="214" on="0"/>
        <pt x="595" y="224" on="1"/>
        <pt x="610" y="226" on="0"/>
        <pt x="605" y="209" on="1"/>
        <pt x="595" y="167" on="0"/>
        <pt x="584" y="139" on="1"/>
        <pt x="581" y="131" on="0"/>
        <pt x="572" y="132" on="1"/>
        <pt x="547" y="134" on="0"/>
        <pt x="503" y="136" on="0"/>
        <pt x="485" y="137" on="1"/>
        <pt x="471" y="108" on="0"/>
        <pt x="510" y="96" on="1"/>
        <pt x="549" y="84" on="0"/>
        <pt x="610" y="90" on="1"/>
        <pt x="650" y="93" on="0"/>
        <pt x="629" y="22" on="1"/>
        <pt x="623" y="2" on="0"/>
        <pt x="610" y="0" on="1"/>
        <pt x="572" y="-5" on="0"/>
        <pt x="510" y="-1" on="0"/>
        <pt x="485" y="7" on="1"/>
        <pt x="418" y="31" on="0"/>
        <pt x="443" y="117" on="1"/>
        <pt x="445" y="124" on="0"/>
        <pt x="447" y="133" on="0"/>
        <pt x="448" y="135" on="1"/>
        <pt x="402" y="132" on="0"/>
        <pt x="307" y="115" on="0"/>
        <pt x="257" y="100" on="1"/>
        <pt x="237" y="94" on="0"/>
        <pt x="172" y="66" on="0"/>
        <pt x="128" y="44" on="1"/>
        <pt x="38" y="0" on="0"/>
        <pt x="0" y="0" on="1"/>
        <pt x="-13" y="0" on="0"/>
        <pt x="-21" y="20" on="1"/>
        <pt x="-28" y="39" on="0"/>
        <pt x="-24" y="62" on="1"/>
        <pt x="-18" y="87" on="0"/>
        <pt x="0" y="90" on="1"/>
        <pt x="43" y="98" on="0"/>
        <pt x="112" y="117" on="0"/>
        <pt x="138" y="128" on="1"/>
        <pt x="171" y="143" on="0"/>
        <pt x="217" y="163" on="0"/>
        <pt x="232" y="167" on="1"/>
        <pt x="243" y="170" on="0"/>
        <pt x="241" y="175" on="1"/>
        <pt x="241" y="179" on="0"/>
        <pt x="233" y="182" on="1"/>
        <pt x="158" y="213" on="0"/>
        <pt x="114" y="218" on="1"/>
        <pt x="70" y="223" on="0"/>
        <pt x="32" y="201" on="1"/>
        <pt x="23" y="197" on="0"/>
        <pt x="16" y="198" on="1"/>
        <pt x="9" y="199" on="0"/>
        <pt x="12" y="213" on="1"/>
        <pt x="37" y="306" on="0"/>
      </contour>
    </TTGlyph>
    <TTGlyph name="glyph00014" xMin="53" yMin="-361" xMax="672" yMax="650">
      <contour>
        <pt x="522" y="348" on="1"/>
        <pt x="546" y="105" on="0"/>
        <pt x="663" y="86" on="1"/>
        <pt x="672" y="81" on="0"/>
        <pt x="663" y="36" on="1"/>
        <pt x="657" y="0" on="0"/>
        <pt x="645" y="0" on="1"/>
        <pt x="573" y="0" on="0"/>
        <pt x="531" y="80" on="1"/>
        <pt x="555" y="-214" on="0"/>
        <pt x="472" y="-276" on="1"/>
        <pt x="359" y="-358" on="0"/>
        <pt x="266" y="-359" on="1"/>
        <pt x="165" y="-361" on="0"/>
        <pt x="109" y="-306" on="1"/>
        <pt x="53" y="-251" on="0"/>
        <pt x="66" y="-154" on="1"/>
        <pt x="73" y="-105" on="0"/>
        <pt x="116" y="-7" on="0"/>
        <pt x="153" y="42" on="1"/>
        <pt x="158" y="48" on="0"/>
        <pt x="165" y="48" on="1"/>
        <pt x="171" y="48" on="0"/>
        <pt x="174" y="42" on="1"/>
        <pt x="177" y="36" on="0"/>
        <pt x="171" y="27" on="1"/>
        <pt x="88" y="-98" on="0"/>
        <pt x="120" y="-172" on="1"/>
        <pt x="159" y="-262" on="0"/>
        <pt x="299" y="-253" on="1"/>
        <pt x="415" y="-245" on="0"/>
        <pt x="505" y="-157" on="1"/>
        <pt x="457" y="523" on="1"/>
        <pt x="454" y="558" on="0"/>
        <pt x="458" y="573" on="1"/>
        <pt x="477" y="633" on="1"/>
        <pt x="493" y="650" on="0"/>
        <pt x="497" y="613" on="1"/>
      </contour>
    </TTGlyph>
    <TTGlyph name="glyph00015" xMin="-18" yMin="0" xMax="120" yMax="714">
      <contour>
        <pt x="16" y="660" on="1"/>
        <pt x="31" y="696" on="0"/>
        <pt x="34" y="705" on="1"/>
        <pt x="37" y="714" on="0"/>
        <pt x="44" y="714" on="1"/>
        <pt x="52" y="714" on="0"/>
        <pt x="55" y="704" on="1"/>
        <pt x="70" y="659" on="0"/>
        <pt x="98" y="631" on="1"/>
        <pt x="108" y="622" on="0"/>
        <pt x="97" y="608" on="1"/>
        <pt x="75" y="577" on="1"/>
        <pt x="78" y="549" on="0"/>
        <pt x="84" y="497" on="0"/>
        <pt x="87" y="473" on="1"/>
        <pt x="120" y="224" on="0"/>
        <pt x="110" y="171" on="1"/>
        <pt x="78" y="12" on="0"/>
        <pt x="0" y="0" on="1"/>
        <pt x="-2" y="0" on="0"/>
        <pt x="-4" y="0" on="1"/>
        <pt x="-18" y="4" on="0"/>
        <pt x="-15" y="66" on="1"/>
        <pt x="-15" y="89" on="0"/>
        <pt x="0" y="90" on="1"/>
        <pt x="55" y="96" on="0"/>
        <pt x="76" y="135" on="1"/>
        <pt x="75" y="174" on="0"/>
        <pt x="62" y="298" on="0"/>
        <pt x="51" y="381" on="1"/>
        <pt x="41" y="464" on="0"/>
        <pt x="27" y="566" on="0"/>
        <pt x="25" y="585" on="1"/>
        <pt x="15" y="642" on="1"/>
        <pt x="14" y="654" on="0"/>
      </contour>
    </TTGlyph>
    <TTGlyph name="glyph00016" xMin="62" yMin="-65" xMax="547" yMax="751">
      <contour>
        <pt x="463" y="744" on="1"/>
        <pt x="466" y="751" on="0"/>
        <pt x="473" y="751" on="1"/>
        <pt x="480" y="751" on="0"/>
        <pt x="483" y="742" on="1"/>
        <pt x="501" y="693" on="0"/>
        <pt x="524" y="669" on="1"/>
        <pt x="533" y="660" on="0"/>
        <pt x="523" y="645" on="1"/>
        <pt x="518" y="638" on="0"/>
        <pt x="510" y="626" on="0"/>
        <pt x="507" y="622" on="1"/>
        <pt x="501" y="615" on="0"/>
        <pt x="501" y="602" on="1"/>
        <pt x="503" y="569" on="0"/>
        <pt x="513" y="478" on="0"/>
        <pt x="520" y="420" on="1"/>
        <pt x="528" y="362" on="0"/>
        <pt x="537" y="273" on="0"/>
        <pt x="539" y="241" on="1"/>
        <pt x="547" y="139" on="0"/>
        <pt x="512" y="58" on="1"/>
        <pt x="491" y="7" on="0"/>
        <pt x="407" y="-29" on="1"/>
        <pt x="322" y="-65" on="0"/>
        <pt x="257" y="-64" on="1"/>
        <pt x="64" y="-61" on="0"/>
        <pt x="63" y="104" on="1"/>
        <pt x="62" y="213" on="0"/>
        <pt x="139" y="313" on="1"/>
        <pt x="144" y="320" on="0"/>
        <pt x="150" y="318" on="1"/>
        <pt x="157" y="316" on="0"/>
        <pt x="158" y="311" on="1"/>
        <pt x="160" y="304" on="0"/>
        <pt x="156" y="298" on="1"/>
        <pt x="103" y="202" on="0"/>
        <pt x="107" y="159" on="1"/>
        <pt x="121" y="36" on="0"/>
        <pt x="290" y="42" on="1"/>
        <pt x="435" y="47" on="0"/>
        <pt x="499" y="129" on="1"/>
        <pt x="498" y="161" on="0"/>
        <pt x="487" y="272" on="0"/>
        <pt x="476" y="352" on="1"/>
        <pt x="466" y="432" on="0"/>
        <pt x="450" y="582" on="0"/>
        <pt x="445" y="652" on="1"/>
        <pt x="441" y="686" on="1"/>
        <pt x="441" y="694" on="0"/>
        <pt x="444" y="700" on="1"/>
      </contour>
    </TTGlyph>
    <TTGlyph name="glyph00017" xMin="-35" yMin="-1" xMax="210" yMax="697">
      <contour>
        <pt x="198" y="90" on="1"/>
        <pt x="210" y="87" on="0"/>
        <pt x="210" y="61" on="1"/>
        <pt x="208" y="-1" on="0"/>
        <pt x="198" y="0" on="1"/>
        <pt x="141" y="8" on="0"/>
        <pt x="99" y="115" on="1"/>
        <pt x="89" y="139" on="0"/>
        <pt x="86" y="112" on="1"/>
        <pt x="70" y="2" on="0"/>
        <pt x="0" y="0" on="1"/>
        <pt x="-6" y="0" on="0"/>
        <pt x="-11" y="11" on="1"/>
        <pt x="-35" y="80" on="0"/>
        <pt x="0" y="90" on="1"/>
        <pt x="35" y="101" on="0"/>
        <pt x="53" y="126" on="1"/>
        <pt x="68" y="148" on="0"/>
        <pt x="67" y="182" on="1"/>
        <pt x="50" y="635" on="1"/>
        <pt x="50" y="648" on="0"/>
        <pt x="54" y="652" on="1"/>
        <pt x="83" y="686" on="1"/>
        <pt x="93" y="697" on="0"/>
        <pt x="94" y="681" on="1"/>
        <pt x="96" y="657" on="0"/>
        <pt x="101" y="591" on="0"/>
        <pt x="102" y="549" on="1"/>
        <pt x="107" y="397" on="0"/>
        <pt x="117" y="224" on="0"/>
        <pt x="121" y="204" on="1"/>
        <pt x="145" y="102" on="0"/>
      </contour>
    </TTGlyph>
    <TTGlyph name="glyph00018" xMin="48" yMin="-582" xMax="554" yMax="216">
      <contour>
        <pt x="261" y="204" on="1"/>
        <pt x="286" y="175" on="0"/>
        <pt x="346" y="131" on="0"/>
        <pt x="381" y="118" on="1"/>
        <pt x="416" y="105" on="0"/>
        <pt x="486" y="91" on="0"/>
        <pt x="522" y="90" on="1"/>
        <pt x="554" y="88" on="0"/>
        <pt x="547" y="45" on="1"/>
        <pt x="540" y="0" on="0"/>
        <pt x="522" y="0" on="1"/>
        <pt x="431" y="0" on="0"/>
        <pt x="358" y="40" on="1"/>
        <pt x="354" y="42" on="0"/>
        <pt x="354" y="37" on="1"/>
        <pt x="358" y="-69" on="0"/>
        <pt x="316" y="-104" on="1"/>
        <pt x="302" y="-115" on="0"/>
        <pt x="288" y="-103" on="1"/>
        <pt x="259" y="-77" on="0"/>
        <pt x="222" y="3" on="0"/>
        <pt x="217" y="57" on="1"/>
        <pt x="165" y="56" on="0"/>
        <pt x="107" y="-2" on="1"/>
        <pt x="96" y="-14" on="0"/>
        <pt x="114" y="-132" on="1"/>
        <pt x="142" y="-314" on="0"/>
        <pt x="162" y="-523" on="0"/>
        <pt x="155" y="-549" on="1"/>
        <pt x="149" y="-573" on="0"/>
        <pt x="141" y="-577" on="1"/>
        <pt x="132" y="-582" on="0"/>
        <pt x="125" y="-572" on="1"/>
        <pt x="118" y="-562" on="0"/>
        <pt x="118" y="-543" on="1"/>
        <pt x="115" y="-446" on="0"/>
        <pt x="79" y="-233" on="1"/>
        <pt x="48" y="-52" on="0"/>
        <pt x="84" y="42" on="1"/>
        <pt x="117" y="125" on="0"/>
        <pt x="226" y="170" on="1"/>
        <pt x="232" y="189" on="0"/>
        <pt x="241" y="202" on="1"/>
        <pt x="250" y="216" on="0"/>
      </contour>
    </TTGlyph>
    <TTGlyph name="glyph00019" xMin="-31" yMin="0" xMax="328" yMax="318">
      <contour>
        <pt x="233" y="318" on="1"/>
        <pt x="301" y="316" on="0"/>
        <pt x="326" y="152" on="1"/>
        <pt x="328" y="141" on="0"/>
        <pt x="323" y="135" on="1"/>
        <pt x="268" y="66" on="1"/>
        <pt x="261" y="56" on="0"/>
        <pt x="249" y="59" on="1"/>
        <pt x="172" y="81" on="0"/>
        <pt x="113" y="131" on="1"/>
        <pt x="66" y="0" on="0"/>
        <pt x="0" y="0" on="1"/>
        <pt x="-7" y="0" on="0"/>
        <pt x="-15" y="21" on="1"/>
        <pt x="-31" y="71" on="0"/>
        <pt x="-16" y="85" on="1"/>
        <pt x="-10" y="90" on="0"/>
        <pt x="0" y="90" on="1"/>
        <pt x="46" y="91" on="0"/>
        <pt x="88" y="146" on="1"/>
        <pt x="102" y="165" on="0"/>
        <pt x="153" y="256" on="1"/>
        <pt x="188" y="318" on="0"/>
      </contour>
      <contour>
        <pt x="161" y="220" on="1"/>
        <pt x="196" y="186" on="0"/>
        <pt x="251" y="174" on="1"/>
        <pt x="252" y="217" on="0"/>
        <pt x="222" y="231" on="1"/>
        <pt x="192" y="245" on="0"/>
      </contour>
    </TTGlyph>
    <TTGlyph name="glyph00020" xMin="56" yMin="-517" xMax="390" yMax="339">
      <contour>
        <pt x="104" y="126" on="1"/>
        <pt x="109" y="158" on="0"/>
        <pt x="126" y="221" on="0"/>
        <pt x="140" y="250" on="1"/>
        <pt x="169" y="309" on="0"/>
        <pt x="202" y="321" on="1"/>
        <pt x="249" y="339" on="0"/>
        <pt x="316" y="282" on="1"/>
        <pt x="334" y="267" on="0"/>
        <pt x="366" y="233" on="0"/>
        <pt x="381" y="214" on="1"/>
        <pt x="390" y="203" on="0"/>
        <pt x="389" y="193" on="1"/>
        <pt x="382" y="150" on="0"/>
        <pt x="372" y="99" on="0"/>
        <pt x="370" y="94" on="1"/>
        <pt x="365" y="83" on="0"/>
        <pt x="353" y="86" on="1"/>
        <pt x="188" y="125" on="0"/>
        <pt x="104" y="26" on="1"/>
        <pt x="96" y="16" on="0"/>
        <pt x="99" y="6" on="1"/>
        <pt x="135" y="-126" on="0"/>
        <pt x="165" y="-280" on="1"/>
        <pt x="210" y="-512" on="0"/>
        <pt x="173" y="-516" on="1"/>
        <pt x="161" y="-517" on="0"/>
        <pt x="158" y="-490" on="1"/>
        <pt x="154" y="-442" on="0"/>
        <pt x="132" y="-330" on="0"/>
        <pt x="116" y="-267" on="1"/>
        <pt x="56" y="-37" on="0"/>
        <pt x="65" y="20" on="1"/>
        <pt x="70" y="58" on="0"/>
        <pt x="91" y="111" on="0"/>
      </contour>
      <contour>
        <pt x="156" y="163" on="1"/>
        <pt x="174" y="171" on="0"/>
        <pt x="218" y="182" on="0"/>
        <pt x="243" y="185" on="1"/>
        <pt x="206" y="216" on="0"/>
        <pt x="188" y="210" on="1"/>
        <pt x="161" y="202" on="0"/>
      </contour>
    </TTGlyph>
    <TTGlyph name="glyph00021" xMin="-27" yMin="-21" xMax="483" yMax="253">
      <contour>
        <pt x="223" y="250" on="1"/>
        <pt x="229" y="253" on="0"/>
        <pt x="232" y="248" on="1"/>
        <pt x="268" y="194" on="0"/>
        <pt x="328" y="146" on="1"/>
        <pt x="389" y="97" on="0"/>
        <pt x="464" y="90" on="1"/>
        <pt x="483" y="89" on="0"/>
        <pt x="483" y="65" on="1"/>
        <pt x="483" y="0" on="0"/>
        <pt x="464" y="0" on="1"/>
        <pt x="396" y="0" on="0"/>
        <pt x="323" y="50" on="1"/>
        <pt x="318" y="-6" on="0"/>
        <pt x="311" y="-13" on="1"/>
        <pt x="303" y="-21" on="0"/>
        <pt x="292" y="-21" on="1"/>
        <pt x="179" y="-12" on="0"/>
        <pt x="105" y="78" on="1"/>
        <pt x="102" y="82" on="0"/>
        <pt x="98" y="77" on="1"/>
        <pt x="48" y="2" on="0"/>
        <pt x="0" y="0" on="1"/>
        <pt x="-11" y="0" on="0"/>
        <pt x="-15" y="16" on="1"/>
        <pt x="-27" y="61" on="0"/>
        <pt x="-14" y="80" on="1"/>
        <pt x="-7" y="90" on="0"/>
        <pt x="0" y="90" on="1"/>
        <pt x="94" y="93" on="0"/>
        <pt x="115" y="138" on="1"/>
        <pt x="159" y="227" on="0"/>
      </contour>
      <contour>
        <pt x="219" y="176" on="1"/>
        <pt x="217" y="179" on="0"/>
        <pt x="212" y="178" on="1"/>
        <pt x="182" y="171" on="0"/>
        <pt x="169" y="153" on="1"/>
        <pt x="164" y="146" on="0"/>
        <pt x="170" y="142" on="1"/>
        <pt x="188" y="127" on="0"/>
        <pt x="231" y="104" on="0"/>
        <pt x="256" y="96" on="1"/>
        <pt x="263" y="94" on="0"/>
        <pt x="266" y="98" on="0"/>
        <pt x="262" y="102" on="1"/>
        <pt x="252" y="116" on="0"/>
        <pt x="230" y="153" on="0"/>
      </contour>
    </TTGlyph>
    <TTGlyph name="glyph00022" xMin="-42" yMin="0" xMax="299" yMax="763">
      <contour>
        <pt x="105" y="239" on="1"/>
        <pt x="97" y="113" on="0"/>
        <pt x="40" y="50" on="1"/>
        <pt x="20" y="29" on="0"/>
        <pt x="-19" y="41" on="1"/>
        <pt x="-42" y="49" on="0"/>
        <pt x="-41" y="57" on="1"/>
        <pt x="-41" y="61" on="0"/>
        <pt x="-31" y="64" on="1"/>
        <pt x="85" y="106" on="0"/>
        <pt x="79" y="269" on="1"/>
        <pt x="77" y="337" on="0"/>
        <pt x="69" y="458" on="0"/>
        <pt x="63" y="513" on="1"/>
        <pt x="57" y="568" on="0"/>
        <pt x="51" y="645" on="0"/>
        <pt x="49" y="667" on="1"/>
        <pt x="49" y="678" on="0"/>
        <pt x="55" y="690" on="1"/>
        <pt x="76" y="731" on="1"/>
        <pt x="91" y="763" on="0"/>
        <pt x="96" y="718" on="1"/>
        <pt x="120" y="493" on="1"/>
        <pt x="144" y="268" on="0"/>
        <pt x="144" y="267" on="1"/>
        <pt x="174" y="98" on="0"/>
        <pt x="254" y="90" on="1"/>
        <pt x="299" y="85" on="0"/>
        <pt x="271" y="13" on="1"/>
        <pt x="266" y="0" on="0"/>
        <pt x="254" y="0" on="1"/>
        <pt x="142" y="0" on="0"/>
      </contour>
    </TTGlyph>
    <TTGlyph name="glyph00023" xMin="56" yMin="-651" xMax="407" yMax="69">
      <component glyphName="glyph00066" x="34" y="-140" flags="0x1004"/>
    </TTGlyph>
    <TTGlyph name="glyph00024" xMin="-73" yMin="188" xMax="216" yMax="704">
      <contour>
        <pt x="160" y="322" on="1"/>
        <pt x="156" y="378" on="0"/>
        <pt x="141" y="514" on="0"/>
        <pt x="129" y="596" on="1"/>
        <pt x="117" y="637" on="1"/>
        <pt x="116" y="648" on="0"/>
        <pt x="121" y="657" on="1"/>
        <pt x="123" y="661" on="0"/>
        <pt x="136" y="681" on="0"/>
        <pt x="146" y="698" on="1"/>
        <pt x="149" y="704" on="0"/>
        <pt x="155" y="704" on="1"/>
        <pt x="160" y="704" on="0"/>
        <pt x="162" y="696" on="1"/>
        <pt x="173" y="656" on="0"/>
        <pt x="206" y="621" on="1"/>
        <pt x="216" y="611" on="0"/>
        <pt x="207" y="601" on="1"/>
        <pt x="186" y="572" on="1"/>
        <pt x="182" y="566" on="0"/>
        <pt x="183" y="551" on="1"/>
        <pt x="212" y="336" on="0"/>
        <pt x="187" y="275" on="1"/>
        <pt x="158" y="202" on="0"/>
        <pt x="-5" y="192" on="1"/>
        <pt x="-73" y="188" on="0"/>
        <pt x="-31" y="240" on="1"/>
        <pt x="-26" y="246" on="0"/>
        <pt x="-17" y="257" on="0"/>
        <pt x="-13" y="262" on="1"/>
        <pt x="-4" y="273" on="0"/>
        <pt x="13" y="273" on="1"/>
        <pt x="89" y="274" on="0"/>
        <pt x="131" y="285" on="1"/>
        <pt x="161" y="292" on="0"/>
      </contour>
    </TTGlyph>
    <TTGlyph name="glyph00025" xMin="-34" yMin="274" xMax="73" yMax="738">
      <contour>
        <pt x="-16" y="276" on="1"/>
        <pt x="-34" y="274" on="0"/>
        <pt x="-15" y="323" on="1"/>
        <pt x="4" y="372" on="0"/>
        <pt x="15" y="376" on="1"/>
        <pt x="27" y="381" on="0"/>
        <pt x="26" y="395" on="1"/>
        <pt x="25" y="403" on="0"/>
        <pt x="15" y="467" on="0"/>
        <pt x="6" y="524" on="1"/>
        <pt x="-3" y="581" on="0"/>
        <pt x="-15" y="647" on="0"/>
        <pt x="-17" y="657" on="1"/>
        <pt x="-22" y="678" on="0"/>
        <pt x="-18" y="687" on="1"/>
        <pt x="-2" y="730" on="1"/>
        <pt x="1" y="738" on="0"/>
        <pt x="7" y="737" on="1"/>
        <pt x="13" y="736" on="0"/>
        <pt x="16" y="729" on="1"/>
        <pt x="27" y="704" on="0"/>
        <pt x="50" y="668" on="0"/>
        <pt x="63" y="655" on="1"/>
        <pt x="73" y="645" on="0"/>
        <pt x="63" y="632" on="1"/>
        <pt x="42" y="602" on="0"/>
        <pt x="41" y="601" on="1"/>
        <pt x="55" y="525" on="0"/>
        <pt x="66" y="433" on="0"/>
        <pt x="64" y="418" on="1"/>
        <pt x="50" y="280" on="0"/>
      </contour>
    </TTGlyph>
    <TTGlyph name="glyph00026" xMin="-62" yMin="197" xMax="386" yMax="749">
      <contour>
        <pt x="374" y="376" on="1"/>
        <pt x="386" y="379" on="0"/>
        <pt x="383" y="356" on="1"/>
        <pt x="377" y="315" on="0"/>
        <pt x="357" y="285" on="1"/>
        <pt x="351" y="276" on="0"/>
        <pt x="347" y="276" on="1"/>
        <pt x="258" y="263" on="0"/>
        <pt x="227" y="456" on="1"/>
        <pt x="222" y="332" on="0"/>
        <pt x="106" y="257" on="1"/>
        <pt x="19" y="201" on="0"/>
        <pt x="-52" y="197" on="1"/>
        <pt x="-62" y="197" on="0"/>
        <pt x="-57" y="205" on="1"/>
        <pt x="-20" y="282" on="1"/>
        <pt x="-17" y="287" on="0"/>
        <pt x="-12" y="287" on="1"/>
        <pt x="144" y="297" on="0"/>
        <pt x="192" y="403" on="1"/>
        <pt x="204" y="428" on="0"/>
        <pt x="196" y="524" on="1"/>
        <pt x="195" y="541" on="0"/>
        <pt x="192" y="577" on="0"/>
        <pt x="190" y="595" on="1"/>
        <pt x="189" y="613" on="0"/>
        <pt x="184" y="660" on="0"/>
        <pt x="182" y="688" on="1"/>
        <pt x="182" y="694" on="0"/>
        <pt x="186" y="699" on="1"/>
        <pt x="216" y="735" on="1"/>
        <pt x="228" y="749" on="0"/>
        <pt x="229" y="735" on="1"/>
        <pt x="250" y="493" on="0"/>
        <pt x="279" y="436" on="1"/>
        <pt x="318" y="361" on="0"/>
      </contour>
    </TTGlyph>
    <TTGlyph name="glyph00027" xMin="-30" yMin="0" xMax="593" yMax="274">
      <component glyphName="glyph00048" x="0" y="0" flags="0x1004"/>
    </TTGlyph>
    <TTGlyph name="glyph00028" xMin="-26" yMin="-10" xMax="312" yMax="341">
      <contour>
        <pt x="130" y="267" on="1"/>
        <pt x="129" y="240" on="0"/>
        <pt x="155" y="196" on="1"/>
        <pt x="165" y="180" on="0"/>
        <pt x="188" y="156" on="0"/>
        <pt x="201" y="148" on="1"/>
        <pt x="206" y="145" on="0"/>
        <pt x="230" y="138" on="0"/>
        <pt x="249" y="133" on="1"/>
        <pt x="264" y="129" on="0"/>
        <pt x="286" y="120" on="0"/>
        <pt x="295" y="115" on="1"/>
        <pt x="312" y="107" on="0"/>
        <pt x="312" y="88" on="1"/>
        <pt x="311" y="36" on="0"/>
        <pt x="303" y="6" on="1"/>
        <pt x="300" y="-10" on="0"/>
        <pt x="287" y="-2" on="1"/>
        <pt x="194" y="49" on="0"/>
        <pt x="165" y="49" on="1"/>
        <pt x="136" y="49" on="0"/>
        <pt x="83" y="25" on="1"/>
        <pt x="57" y="13" on="0"/>
        <pt x="16" y="0" on="0"/>
        <pt x="0" y="0" on="1"/>
        <pt x="-12" y="0" on="0"/>
        <pt x="-19" y="22" on="1"/>
        <pt x="-26" y="45" on="0"/>
        <pt x="-22" y="67" on="1"/>
        <pt x="-18" y="89" on="0"/>
        <pt x="0" y="90" on="1"/>
        <pt x="81" y="97" on="0"/>
        <pt x="120" y="124" on="1"/>
        <pt x="79" y="198" on="0"/>
        <pt x="104" y="278" on="1"/>
        <pt x="132" y="341" on="0"/>
      </contour>
    </TTGlyph>
    <TTGlyph name="glyph00029" xMin="-88" yMin="103" xMax="41" yMax="718">
      <contour>
        <pt x="-14" y="476" on="1"/>
        <pt x="-1" y="343" on="0"/>
        <pt x="19" y="189" on="0"/>
        <pt x="26" y="169" on="1"/>
        <pt x="41" y="131" on="0"/>
        <pt x="22" y="117" on="1"/>
        <pt x="3" y="103" on="0"/>
        <pt x="-9" y="126" on="1"/>
        <pt x="-31" y="167" on="0"/>
        <pt x="-58" y="441" on="1"/>
        <pt x="-68" y="557" on="0"/>
        <pt x="-73" y="588" on="1"/>
        <pt x="-84" y="634" on="1"/>
        <pt x="-88" y="651" on="0"/>
        <pt x="-83" y="662" on="1"/>
        <pt x="-64" y="694" on="0"/>
        <pt x="-60" y="700" on="1"/>
        <pt x="-47" y="718" on="0"/>
        <pt x="-42" y="701" on="1"/>
        <pt x="-35" y="666" on="0"/>
        <pt x="3" y="625" on="1"/>
        <pt x="11" y="617" on="0"/>
        <pt x="5" y="609" on="1"/>
        <pt x="-2" y="599" on="0"/>
        <pt x="-13" y="584" on="0"/>
        <pt x="-17" y="579" on="1"/>
        <pt x="-24" y="570" on="0"/>
        <pt x="-23" y="561" on="1"/>
        <pt x="-21" y="549" on="0"/>
      </contour>
    </TTGlyph>
    <TTGlyph name="glyph00030" xMin="-38" yMin="-14" xMax="295" yMax="198">
      <contour>
        <pt x="141" y="192" on="1"/>
        <pt x="167" y="198" on="0"/>
        <pt x="173" y="172" on="1"/>
        <pt x="175" y="161" on="0"/>
        <pt x="192" y="151" on="1"/>
        <pt x="201" y="146" on="0"/>
        <pt x="227" y="131" on="0"/>
        <pt x="244" y="123" on="1"/>
        <pt x="278" y="107" on="0"/>
        <pt x="286" y="100" on="1"/>
        <pt x="295" y="93" on="0"/>
        <pt x="293" y="85" on="1"/>
        <pt x="285" y="21" on="0"/>
        <pt x="274" y="-9" on="1"/>
        <pt x="272" y="-14" on="0"/>
        <pt x="264" y="-14" on="1"/>
        <pt x="254" y="-14" on="0"/>
        <pt x="251" y="-11" on="1"/>
        <pt x="199" y="41" on="0"/>
        <pt x="159" y="52" on="1"/>
        <pt x="121" y="62" on="0"/>
        <pt x="51" y="20" on="1"/>
        <pt x="17" y="0" on="0"/>
        <pt x="0" y="0" on="1"/>
        <pt x="-10" y="0" on="0"/>
        <pt x="-14" y="13" on="1"/>
        <pt x="-38" y="87" on="0"/>
        <pt x="0" y="90" on="1"/>
        <pt x="32" y="93" on="0"/>
        <pt x="102" y="111" on="0"/>
        <pt x="139" y="127" on="1"/>
        <pt x="123" y="188" on="0"/>
      </contour>
    </TTGlyph>
    <TTGlyph name="glyph00031" xMin="-40" yMin="23" xMax="262" yMax="730">
      <contour>
        <pt x="57" y="54" on="1"/>
        <pt x="27" y="24" on="0"/>
        <pt x="-14" y="23" on="1"/>
        <pt x="-40" y="23" on="0"/>
        <pt x="-40" y="33" on="1"/>
        <pt x="-40" y="44" on="0"/>
        <pt x="-16" y="57" on="1"/>
        <pt x="146" y="147" on="0"/>
        <pt x="168" y="386" on="1"/>
        <pt x="180" y="509" on="0"/>
        <pt x="171" y="631" on="1"/>
        <pt x="168" y="670" on="0"/>
        <pt x="174" y="680" on="1"/>
        <pt x="185" y="699" on="0"/>
        <pt x="197" y="721" on="0"/>
        <pt x="199" y="724" on="1"/>
        <pt x="204" y="730" on="0"/>
        <pt x="209" y="729" on="1"/>
        <pt x="216" y="727" on="0"/>
        <pt x="217" y="722" on="1"/>
        <pt x="232" y="664" on="0"/>
        <pt x="247" y="647" on="1"/>
        <pt x="262" y="631" on="0"/>
        <pt x="248" y="617" on="1"/>
        <pt x="220" y="588" on="1"/>
        <pt x="222" y="532" on="0"/>
        <pt x="209" y="403" on="0"/>
        <pt x="195" y="329" on="1"/>
        <pt x="162" y="156" on="0"/>
      </contour>
    </TTGlyph>
    <TTGlyph name="glyph00032" xMin="60" yMin="-47" xMax="510" yMax="711">
      <contour>
        <pt x="279" y="60" on="1"/>
        <pt x="351" y="53" on="0"/>
        <pt x="443" y="54" on="0"/>
        <pt x="464" y="61" on="1"/>
        <pt x="454" y="158" on="0"/>
        <pt x="323" y="341" on="1"/>
        <pt x="276" y="407" on="0"/>
        <pt x="206" y="496" on="0"/>
        <pt x="183" y="518" on="1"/>
        <pt x="168" y="492" on="1"/>
        <pt x="155" y="483" on="0"/>
        <pt x="144" y="496" on="1"/>
        <pt x="75" y="570" on="1"/>
        <pt x="60" y="587" on="0"/>
        <pt x="63" y="609" on="1"/>
        <pt x="77" y="696" on="1"/>
        <pt x="79" y="710" on="0"/>
        <pt x="86" y="710" on="1"/>
        <pt x="107" y="711" on="0"/>
        <pt x="198" y="601" on="1"/>
        <pt x="244" y="546" on="0"/>
        <pt x="323" y="441" on="0"/>
        <pt x="356" y="391" on="1"/>
        <pt x="498" y="175" on="0"/>
        <pt x="507" y="42" on="1"/>
        <pt x="510" y="-14" on="0"/>
        <pt x="478" y="-23" on="1"/>
        <pt x="385" y="-47" on="0"/>
        <pt x="274" y="-29" on="1"/>
        <pt x="263" y="-28" on="0"/>
        <pt x="260" y="-22" on="1"/>
        <pt x="242" y="21" on="0"/>
        <pt x="265" y="51" on="1"/>
        <pt x="273" y="62" on="0"/>
      </contour>
    </TTGlyph>
    <TTGlyph name="glyph00033" xMin="-23" yMin="347" xMax="131" yMax="729">
      <contour>
        <pt x="50" y="701" on="1"/>
        <pt x="54" y="710" on="0"/>
        <pt x="59" y="722" on="0"/>
        <pt x="60" y="724" on="1"/>
        <pt x="63" y="729" on="0"/>
        <pt x="68" y="729" on="1"/>
        <pt x="73" y="729" on="0"/>
        <pt x="75" y="724" on="1"/>
        <pt x="93" y="676" on="0"/>
        <pt x="123" y="646" on="1"/>
        <pt x="131" y="638" on="0"/>
        <pt x="123" y="627" on="1"/>
        <pt x="98" y="593" on="1"/>
        <pt x="108" y="528" on="1"/>
        <pt x="123" y="418" on="0"/>
        <pt x="97" y="390" on="1"/>
        <pt x="81" y="372" on="0"/>
        <pt x="20" y="347" on="1"/>
        <pt x="-23" y="394" on="0"/>
        <pt x="32" y="400" on="1"/>
        <pt x="66" y="404" on="0"/>
        <pt x="87" y="412" on="1"/>
        <pt x="88" y="419" on="0"/>
        <pt x="81" y="464" on="0"/>
        <pt x="74" y="503" on="1"/>
        <pt x="66" y="550" on="0"/>
        <pt x="51" y="621" on="0"/>
        <pt x="43" y="646" on="1"/>
        <pt x="36" y="669" on="0"/>
        <pt x="39" y="676" on="1"/>
        <pt x="43" y="683" on="0"/>
      </contour>
    </TTGlyph>
    <TTGlyph name="glyph00034" xMin="-62" yMin="188" xMax="440" yMax="401">
      <contour>
        <pt x="-61" y="319" on="1"/>
        <pt x="-56" y="351" on="0"/>
        <pt x="-38" y="371" on="1"/>
        <pt x="-18" y="392" on="0"/>
        <pt x="31" y="398" on="1"/>
        <pt x="56" y="401" on="0"/>
        <pt x="102" y="394" on="0"/>
        <pt x="123" y="386" on="1"/>
        <pt x="199" y="355" on="0"/>
        <pt x="290" y="320" on="0"/>
        <pt x="306" y="316" on="1"/>
        <pt x="344" y="308" on="0"/>
        <pt x="410" y="300" on="0"/>
        <pt x="435" y="298" on="1"/>
        <pt x="440" y="298" on="0"/>
        <pt x="438" y="289" on="1"/>
        <pt x="431" y="254" on="0"/>
        <pt x="411" y="225" on="1"/>
        <pt x="408" y="221" on="0"/>
        <pt x="402" y="222" on="1"/>
        <pt x="372" y="229" on="0"/>
        <pt x="321" y="238" on="0"/>
        <pt x="301" y="239" on="1"/>
        <pt x="180" y="248" on="0"/>
        <pt x="32" y="197" on="1"/>
        <pt x="6" y="188" on="0"/>
        <pt x="-12" y="197" on="1"/>
        <pt x="-30" y="206" on="0"/>
        <pt x="-16" y="219" on="1"/>
        <pt x="10" y="243" on="0"/>
        <pt x="157" y="276" on="1"/>
        <pt x="163" y="278" on="0"/>
        <pt x="163" y="280" on="1"/>
        <pt x="162" y="290" on="0"/>
        <pt x="85" y="311" on="1"/>
        <pt x="7" y="333" on="0"/>
        <pt x="-55" y="312" on="1"/>
        <pt x="-62" y="309" on="0"/>
      </contour>
    </TTGlyph>
    <TTGlyph name="glyph00035" xMin="-26" yMin="0" xMax="262" yMax="223">
      <contour>
        <pt x="136" y="222" on="1"/>
        <pt x="163" y="223" on="0"/>
        <pt x="190" y="196" on="1"/>
        <pt x="262" y="126" on="0"/>
        <pt x="256" y="52" on="1"/>
        <pt x="254" y="27" on="0"/>
        <pt x="227" y="33" on="1"/>
        <pt x="169" y="43" on="0"/>
        <pt x="118" y="105" on="1"/>
        <pt x="106" y="120" on="0"/>
        <pt x="98" y="101" on="1"/>
        <pt x="62" y="5" on="0"/>
        <pt x="0" y="0" on="1"/>
        <pt x="-6" y="0" on="0"/>
        <pt x="-12" y="14" on="1"/>
        <pt x="-26" y="52" on="0"/>
        <pt x="-18" y="76" on="1"/>
        <pt x="-14" y="87" on="0"/>
        <pt x="0" y="90" on="1"/>
        <pt x="65" y="100" on="0"/>
        <pt x="89" y="153" on="1"/>
        <pt x="116" y="213" on="0"/>
      </contour>
    </TTGlyph>
    <TTGlyph name="glyph00036" xMin="-30" yMin="0" xMax="593" yMax="274">
      <component glyphName="glyph00048" x="0" y="0" flags="0x1004"/>
    </TTGlyph>
    <TTGlyph name="glyph00037" xMin="-9" yMin="205" xMax="598" yMax="503">
      <contour>
        <pt x="82" y="414" on="1"/>
        <pt x="104" y="498" on="0"/>
        <pt x="177" y="501" on="1"/>
        <pt x="225" y="503" on="0"/>
        <pt x="300" y="451" on="1"/>
        <pt x="423" y="367" on="0"/>
        <pt x="576" y="357" on="1"/>
        <pt x="598" y="356" on="0"/>
        <pt x="587" y="333" on="1"/>
        <pt x="562" y="282" on="1"/>
        <pt x="559" y="275" on="0"/>
        <pt x="549" y="278" on="1"/>
        <pt x="513" y="288" on="0"/>
        <pt x="435" y="301" on="0"/>
        <pt x="392" y="304" on="1"/>
        <pt x="260" y="313" on="0"/>
        <pt x="121" y="254" on="1"/>
        <pt x="60" y="231" on="1"/>
        <pt x="-8" y="205" on="0"/>
        <pt x="-9" y="256" on="1"/>
        <pt x="66" y="304" on="0"/>
        <pt x="304" y="352" on="1"/>
        <pt x="315" y="354" on="0"/>
        <pt x="306" y="358" on="1"/>
        <pt x="269" y="380" on="0"/>
        <pt x="208" y="408" on="0"/>
        <pt x="183" y="413" on="1"/>
        <pt x="133" y="424" on="0"/>
        <pt x="95" y="409" on="1"/>
        <pt x="79" y="402" on="0"/>
      </contour>
    </TTGlyph>
    <TTGlyph name="glyph00038" xMin="-42" yMin="228" xMax="415" yMax="547">
      <contour>
        <pt x="319" y="344" on="1"/>
        <pt x="148" y="332" on="0"/>
        <pt x="13" y="242" on="1"/>
        <pt x="-9" y="228" on="0"/>
        <pt x="-19" y="237" on="1"/>
        <pt x="-42" y="255" on="0"/>
        <pt x="12" y="295" on="1"/>
        <pt x="107" y="366" on="0"/>
        <pt x="250" y="398" on="1"/>
        <pt x="231" y="426" on="1"/>
        <pt x="221" y="441" on="0"/>
        <pt x="227" y="453" on="1"/>
        <pt x="243" y="484" on="0"/>
        <pt x="266" y="524" on="0"/>
        <pt x="274" y="532" on="1"/>
        <pt x="287" y="547" on="0"/>
        <pt x="299" y="539" on="1"/>
        <pt x="373" y="499" on="0"/>
        <pt x="405" y="467" on="1"/>
        <pt x="415" y="457" on="0"/>
        <pt x="409" y="438" on="1"/>
        <pt x="405" y="427" on="0"/>
        <pt x="381" y="387" on="0"/>
        <pt x="359" y="358" on="1"/>
        <pt x="350" y="346" on="0"/>
      </contour>
    </TTGlyph>
    <TTGlyph name="glyph00039" xMin="-279" yMin="346" xMax="182" yMax="675">
      <contour>
        <pt x="86" y="471" on="1"/>
        <pt x="-78" y="466" on="0"/>
        <pt x="-226" y="377" on="1"/>
        <pt x="-279" y="346" on="0"/>
        <pt x="-269" y="399" on="1"/>
        <pt x="-268" y="402" on="0"/>
        <pt x="-264" y="406" on="1"/>
        <pt x="-162" y="478" on="0"/>
        <pt x="16" y="525" on="1"/>
        <pt x="-3" y="553" on="1"/>
        <pt x="-12" y="567" on="0"/>
        <pt x="-6" y="581" on="1"/>
        <pt x="22" y="639" on="0"/>
        <pt x="41" y="660" on="1"/>
        <pt x="54" y="675" on="0"/>
        <pt x="66" y="667" on="1"/>
        <pt x="140" y="627" on="0"/>
        <pt x="172" y="595" on="1"/>
        <pt x="182" y="585" on="0"/>
        <pt x="176" y="565" on="1"/>
        <pt x="167" y="537" on="0"/>
        <pt x="126" y="486" on="1"/>
        <pt x="115" y="472" on="0"/>
      </contour>
    </TTGlyph>
    <TTGlyph name="glyph00040" xMin="-109" yMin="184" xMax="485" yMax="419">
      <component glyphName="glyph00049" x="0" y="0" flags="0x1004"/>
    </TTGlyph>
    <TTGlyph name="glyph00041" xMin="-50" yMin="355" xMax="75" yMax="754">
      <contour>
        <pt x="-29" y="749" on="1"/>
        <pt x="-26" y="754" on="0"/>
        <pt x="-20" y="754" on="1"/>
        <pt x="-12" y="754" on="0"/>
        <pt x="-11" y="748" on="1"/>
        <pt x="8" y="702" on="0"/>
        <pt x="36" y="675" on="1"/>
        <pt x="45" y="667" on="0"/>
        <pt x="41" y="658" on="1"/>
        <pt x="39" y="654" on="0"/>
        <pt x="31" y="643" on="0"/>
        <pt x="26" y="635" on="1"/>
        <pt x="15" y="619" on="0"/>
        <pt x="15" y="618" on="1"/>
        <pt x="15" y="617" on="0"/>
        <pt x="21" y="570" on="0"/>
        <pt x="26" y="525" on="1"/>
        <pt x="37" y="435" on="0"/>
        <pt x="46" y="419" on="1"/>
        <pt x="54" y="406" on="0"/>
        <pt x="62" y="404" on="1"/>
        <pt x="75" y="403" on="0"/>
        <pt x="59" y="379" on="1"/>
        <pt x="42" y="355" on="0"/>
        <pt x="24" y="361" on="1"/>
        <pt x="5" y="367" on="0"/>
        <pt x="2" y="409" on="1"/>
        <pt x="1" y="417" on="0"/>
        <pt x="-7" y="471" on="0"/>
        <pt x="-15" y="518" on="1"/>
        <pt x="-26" y="589" on="0"/>
        <pt x="-41" y="667" on="0"/>
        <pt x="-44" y="675" on="1"/>
        <pt x="-50" y="692" on="0"/>
        <pt x="-46" y="704" on="1"/>
      </contour>
    </TTGlyph>
    <TTGlyph name="glyph00042" xMin="-27" yMin="219" xMax="453" yMax="424">
      <contour>
        <pt x="368" y="403" on="1"/>
        <pt x="405" y="396" on="0"/>
        <pt x="447" y="365" on="1"/>
        <pt x="453" y="360" on="0"/>
        <pt x="452" y="352" on="1"/>
        <pt x="448" y="303" on="0"/>
        <pt x="434" y="265" on="1"/>
        <pt x="431" y="258" on="0"/>
        <pt x="427" y="261" on="1"/>
        <pt x="347" y="320" on="0"/>
        <pt x="277" y="325" on="1"/>
        <pt x="195" y="330" on="0"/>
        <pt x="22" y="226" on="1"/>
        <pt x="-27" y="219" on="0"/>
        <pt x="-2" y="261" on="1"/>
        <pt x="268" y="424" on="0"/>
      </contour>
    </TTGlyph>
    <TTGlyph name="glyph00043" xMin="-30" yMin="0" xMax="593" yMax="274">
      <component glyphName="glyph00048" x="0" y="0" flags="0x1004"/>
    </TTGlyph>
    <TTGlyph name="glyph00044" xMin="-310" yMin="-58" xMax="274" yMax="701">
      <contour>
        <pt x="68" y="634" on="1"/>
        <pt x="95" y="675" on="1"/>
        <pt x="112" y="701" on="0"/>
        <pt x="115" y="664" on="1"/>
        <pt x="129" y="482" on="0"/>
        <pt x="154" y="251" on="0"/>
        <pt x="167" y="202" on="1"/>
        <pt x="193" y="103" on="0"/>
        <pt x="245" y="90" on="1"/>
        <pt x="274" y="82" on="0"/>
        <pt x="265" y="21" on="1"/>
        <pt x="262" y="0" on="0"/>
        <pt x="245" y="0" on="1"/>
        <pt x="159" y="0" on="0"/>
        <pt x="130" y="104" on="1"/>
        <pt x="122" y="133" on="0"/>
        <pt x="108" y="219" on="0"/>
        <pt x="102" y="275" on="1"/>
        <pt x="96" y="331" on="0"/>
        <pt x="88" y="392" on="0"/>
        <pt x="87" y="396" on="1"/>
        <pt x="86" y="400" on="0"/>
        <pt x="84" y="403" on="0"/>
        <pt x="83" y="404" on="1"/>
        <pt x="81" y="405" on="0"/>
        <pt x="76" y="358" on="1"/>
        <pt x="50" y="130" on="0"/>
        <pt x="-48" y="27" on="1"/>
        <pt x="-91" y="-17" on="0"/>
        <pt x="-146" y="-31" on="1"/>
        <pt x="-206" y="-45" on="0"/>
        <pt x="-286" y="-58" on="0"/>
        <pt x="-305" y="-56" on="1"/>
        <pt x="-310" y="-56" on="0"/>
        <pt x="-310" y="-49" on="1"/>
        <pt x="-310" y="-44" on="0"/>
        <pt x="-304" y="-41" on="1"/>
        <pt x="-271" y="-29" on="0"/>
        <pt x="-188" y="16" on="0"/>
        <pt x="-136" y="47" on="1"/>
        <pt x="-33" y="110" on="0"/>
        <pt x="-4" y="166" on="1"/>
        <pt x="34" y="242" on="0"/>
        <pt x="49" y="372" on="1"/>
        <pt x="57" y="437" on="0"/>
        <pt x="63" y="533" on="0"/>
        <pt x="62" y="562" on="1"/>
        <pt x="61" y="591" on="0"/>
        <pt x="64" y="628" on="0"/>
      </contour>
    </TTGlyph>
    <TTGlyph name="glyph00045" xMin="63" yMin="128" xMax="465" yMax="597">
      <contour>
        <pt x="457" y="198" on="1"/>
        <pt x="465" y="148" on="0"/>
        <pt x="453" y="138" on="1"/>
        <pt x="442" y="128" on="0"/>
        <pt x="436" y="153" on="1"/>
        <pt x="397" y="298" on="0"/>
        <pt x="238" y="395" on="1"/>
        <pt x="223" y="404" on="0"/>
        <pt x="219" y="395" on="1"/>
        <pt x="209" y="375" on="1"/>
        <pt x="204" y="367" on="0"/>
        <pt x="198" y="366" on="1"/>
        <pt x="192" y="365" on="0"/>
        <pt x="172" y="377" on="1"/>
        <pt x="85" y="437" on="1"/>
        <pt x="65" y="451" on="0"/>
        <pt x="65" y="468" on="1"/>
        <pt x="63" y="574" on="1"/>
        <pt x="63" y="585" on="0"/>
        <pt x="76" y="591" on="1"/>
        <pt x="89" y="597" on="0"/>
        <pt x="101" y="591" on="1"/>
        <pt x="425" y="418" on="0"/>
      </contour>
    </TTGlyph>
    <TTGlyph name="glyph00046" xMin="-59" yMin="-2" xMax="251" yMax="690">
      <contour>
        <pt x="107" y="683" on="1"/>
        <pt x="110" y="690" on="0"/>
        <pt x="116" y="688" on="1"/>
        <pt x="120" y="687" on="0"/>
        <pt x="122" y="680" on="1"/>
        <pt x="127" y="649" on="0"/>
        <pt x="140" y="521" on="0"/>
        <pt x="150" y="424" on="1"/>
        <pt x="169" y="231" on="0"/>
        <pt x="188" y="172" on="1"/>
        <pt x="206" y="114" on="0"/>
        <pt x="233" y="90" on="1"/>
        <pt x="251" y="73" on="0"/>
        <pt x="247" y="36" on="1"/>
        <pt x="242" y="-2" on="0"/>
        <pt x="233" y="0" on="1"/>
        <pt x="192" y="12" on="0"/>
        <pt x="168" y="54" on="1"/>
        <pt x="156" y="75" on="0"/>
        <pt x="140" y="121" on="0"/>
        <pt x="136" y="146" on="1"/>
        <pt x="132" y="115" on="0"/>
        <pt x="109" y="88" on="1"/>
        <pt x="88" y="62" on="0"/>
        <pt x="55" y="53" on="1"/>
        <pt x="7" y="40" on="0"/>
        <pt x="-32" y="79" on="1"/>
        <pt x="-59" y="106" on="0"/>
        <pt x="-52" y="122" on="1"/>
        <pt x="-46" y="138" on="0"/>
        <pt x="-21" y="133" on="1"/>
        <pt x="22" y="124" on="0"/>
        <pt x="65" y="135" on="1"/>
        <pt x="108" y="146" on="0"/>
        <pt x="120" y="173" on="1"/>
        <pt x="127" y="191" on="0"/>
        <pt x="102" y="396" on="1"/>
        <pt x="89" y="499" on="0"/>
        <pt x="76" y="606" on="0"/>
        <pt x="75" y="610" on="1"/>
        <pt x="74" y="618" on="0"/>
        <pt x="81" y="631" on="1"/>
      </contour>
    </TTGlyph>
    <TTGlyph name="glyph00047" xMin="-25" yMin="-80" xMax="308" yMax="197">
      <contour>
        <pt x="190" y="152" on="1"/>
        <pt x="203" y="137" on="0"/>
        <pt x="218" y="132" on="1"/>
        <pt x="234" y="126" on="0"/>
        <pt x="256" y="103" on="1"/>
        <pt x="298" y="56" on="0"/>
        <pt x="303" y="15" on="1"/>
        <pt x="308" y="-26" on="0"/>
        <pt x="303" y="-56" on="1"/>
        <pt x="299" y="-80" on="0"/>
        <pt x="277" y="-75" on="1"/>
        <pt x="229" y="-66" on="0"/>
        <pt x="191" y="-25" on="1"/>
        <pt x="153" y="16" on="0"/>
        <pt x="145" y="66" on="1"/>
        <pt x="142" y="82" on="0"/>
        <pt x="138" y="86" on="1"/>
        <pt x="133" y="91" on="0"/>
        <pt x="127" y="91" on="1"/>
        <pt x="121" y="91" on="0"/>
        <pt x="101" y="71" on="1"/>
        <pt x="39" y="9" on="0"/>
        <pt x="0" y="0" on="1"/>
        <pt x="-9" y="-3" on="0"/>
        <pt x="-15" y="14" on="1"/>
        <pt x="-25" y="46" on="0"/>
        <pt x="-13" y="77" on="1"/>
        <pt x="-9" y="89" on="0"/>
        <pt x="0" y="90" on="1"/>
        <pt x="11" y="92" on="0"/>
        <pt x="41" y="105" on="0"/>
        <pt x="61" y="115" on="1"/>
        <pt x="102" y="136" on="0"/>
        <pt x="122" y="162" on="1"/>
        <pt x="151" y="197" on="0"/>
        <pt x="170" y="175" on="1"/>
      </contour>
    </TTGlyph>
    <TTGlyph name="glyph00048" xMin="-30" yMin="0" xMax="593" yMax="274">
      <contour>
        <pt x="167" y="250" on="1"/>
        <pt x="214" y="231" on="0"/>
        <pt x="324" y="205" on="0"/>
        <pt x="385" y="197" on="1"/>
        <pt x="508" y="180" on="0"/>
        <pt x="578" y="188" on="1"/>
        <pt x="587" y="189" on="0"/>
        <pt x="590" y="182" on="1"/>
        <pt x="593" y="175" on="0"/>
        <pt x="589" y="167" on="1"/>
        <pt x="559" y="114" on="1"/>
        <pt x="554" y="104" on="0"/>
        <pt x="542" y="106" on="1"/>
        <pt x="379" y="115" on="0"/>
        <pt x="243" y="74" on="1"/>
        <pt x="238" y="73" on="0"/>
        <pt x="184" y="54" on="0"/>
        <pt x="135" y="36" on="1"/>
        <pt x="38" y="0" on="0"/>
        <pt x="0" y="0" on="1"/>
        <pt x="-12" y="0" on="0"/>
        <pt x="-20" y="34" on="1"/>
        <pt x="-30" y="89" on="0"/>
        <pt x="1" y="90" on="1"/>
        <pt x="32" y="91" on="0"/>
        <pt x="130" y="116" on="1"/>
        <pt x="178" y="128" on="0"/>
        <pt x="229" y="141" on="0"/>
        <pt x="231" y="142" on="1"/>
        <pt x="233" y="143" on="0"/>
        <pt x="235" y="144" on="0"/>
        <pt x="236" y="144" on="1"/>
        <pt x="244" y="147" on="0"/>
        <pt x="237" y="150" on="1"/>
        <pt x="215" y="161" on="0"/>
        <pt x="161" y="176" on="0"/>
        <pt x="129" y="181" on="1"/>
        <pt x="98" y="186" on="0"/>
        <pt x="39" y="190" on="0"/>
        <pt x="13" y="188" on="1"/>
        <pt x="5" y="188" on="0"/>
        <pt x="6" y="195" on="1"/>
        <pt x="9" y="206" on="0"/>
        <pt x="21" y="226" on="0"/>
        <pt x="29" y="237" on="1"/>
        <pt x="46" y="260" on="0"/>
        <pt x="63" y="264" on="1"/>
        <pt x="103" y="274" on="0"/>
      </contour>
    </TTGlyph>
    <TTGlyph name="glyph00049" xMin="-109" yMin="184" xMax="485" yMax="419">
      <contour>
        <pt x="-106" y="328" on="1"/>
        <pt x="-82" y="395" on="0"/>
        <pt x="-66" y="407" on="1"/>
        <pt x="-49" y="419" on="0"/>
        <pt x="-4" y="412" on="1"/>
        <pt x="43" y="404" on="0"/>
        <pt x="99" y="384" on="1"/>
        <pt x="158" y="363" on="0"/>
        <pt x="204" y="348" on="1"/>
        <pt x="303" y="317" on="0"/>
        <pt x="459" y="303" on="1"/>
        <pt x="485" y="301" on="0"/>
        <pt x="475" y="285" on="1"/>
        <pt x="436" y="220" on="1"/>
        <pt x="433" y="214" on="0"/>
        <pt x="419" y="217" on="1"/>
        <pt x="305" y="235" on="0"/>
        <pt x="125" y="235" on="0"/>
        <pt x="59" y="215" on="1"/>
        <pt x="-52" y="184" on="0"/>
        <pt x="-72" y="224" on="1"/>
        <pt x="-18" y="260" on="0"/>
        <pt x="126" y="276" on="1"/>
        <pt x="95" y="290" on="0"/>
        <pt x="40" y="309" on="0"/>
        <pt x="15" y="314" on="1"/>
        <pt x="-10" y="319" on="0"/>
        <pt x="-68" y="323" on="0"/>
        <pt x="-101" y="321" on="1"/>
        <pt x="-109" y="321" on="0"/>
      </contour>
    </TTGlyph>
    <TTGlyph name="glyph00050" xMin="48" yMin="-508" xMax="752" yMax="240">
      <contour>
        <pt x="196" y="233" on="1"/>
        <pt x="470" y="220" on="0"/>
        <pt x="605" y="239" on="1"/>
        <pt x="610" y="240" on="0"/>
        <pt x="615" y="235" on="0"/>
        <pt x="614" y="230" on="1"/>
        <pt x="610" y="211" on="0"/>
        <pt x="603" y="185" on="0"/>
        <pt x="600" y="178" on="1"/>
        <pt x="594" y="164" on="0"/>
        <pt x="584" y="163" on="1"/>
        <pt x="338" y="133" on="0"/>
        <pt x="212" y="8" on="1"/>
        <pt x="131" y="-71" on="0"/>
        <pt x="128" y="-169" on="1"/>
        <pt x="122" y="-333" on="0"/>
        <pt x="262" y="-386" on="1"/>
        <pt x="322" y="-408" on="0"/>
        <pt x="492" y="-424" on="0"/>
        <pt x="601" y="-419" on="1"/>
        <pt x="639" y="-417" on="0"/>
        <pt x="710" y="-411" on="0"/>
        <pt x="741" y="-407" on="1"/>
        <pt x="752" y="-405" on="0"/>
        <pt x="752" y="-415" on="1"/>
        <pt x="752" y="-426" on="0"/>
        <pt x="746" y="-428" on="1"/>
        <pt x="688" y="-453" on="0"/>
        <pt x="596" y="-485" on="0"/>
        <pt x="563" y="-493" on="1"/>
        <pt x="530" y="-500" on="0"/>
        <pt x="471" y="-508" on="0"/>
        <pt x="444" y="-507" on="1"/>
        <pt x="242" y="-501" on="0"/>
        <pt x="164" y="-427" on="1"/>
        <pt x="85" y="-352" on="0"/>
        <pt x="89" y="-222" on="1"/>
        <pt x="95" y="-67" on="0"/>
        <pt x="210" y="70" on="1"/>
        <pt x="247" y="113" on="0"/>
        <pt x="305" y="149" on="1"/>
        <pt x="63" y="151" on="1"/>
        <pt x="48" y="154" on="0"/>
        <pt x="60" y="173" on="1"/>
        <pt x="77" y="199" on="0"/>
        <pt x="99" y="231" on="0"/>
        <pt x="104" y="236" on="1"/>
        <pt x="106" y="238" on="0"/>
      </contour>
    </TTGlyph>
    <TTGlyph name="glyph00051" xMin="-98" yMin="390" xMax="196" yMax="768">
      <contour>
        <pt x="133" y="764" on="1"/>
        <pt x="137" y="768" on="0"/>
        <pt x="140" y="767" on="1"/>
        <pt x="143" y="766" on="0"/>
        <pt x="145" y="761" on="1"/>
        <pt x="150" y="739" on="0"/>
        <pt x="172" y="700" on="0"/>
        <pt x="188" y="682" on="1"/>
        <pt x="196" y="672" on="0"/>
        <pt x="186" y="659" on="1"/>
        <pt x="162" y="629" on="0"/>
        <pt x="162" y="626" on="1"/>
        <pt x="167" y="579" on="0"/>
        <pt x="166" y="511" on="0"/>
        <pt x="162" y="490" on="1"/>
        <pt x="155" y="449" on="0"/>
        <pt x="147" y="437" on="1"/>
        <pt x="129" y="407" on="0"/>
        <pt x="25" y="399" on="1"/>
        <pt x="-98" y="390" on="0"/>
        <pt x="-40" y="457" on="1"/>
        <pt x="-34" y="465" on="0"/>
        <pt x="5" y="470" on="0"/>
        <pt x="37" y="470" on="1"/>
        <pt x="101" y="470" on="0"/>
        <pt x="125" y="477" on="1"/>
        <pt x="125" y="508" on="0"/>
        <pt x="123" y="566" on="0"/>
        <pt x="120" y="594" on="1"/>
        <pt x="117" y="622" on="0"/>
        <pt x="110" y="664" on="0"/>
        <pt x="106" y="679" on="1"/>
        <pt x="99" y="708" on="0"/>
        <pt x="103" y="718" on="1"/>
        <pt x="107" y="727" on="0"/>
      </contour>
    </TTGlyph>
    <TTGlyph name="glyph00052" xMin="-78" yMin="172" xMax="546" yMax="477">
      <contour>
        <pt x="73" y="457" on="1"/>
        <pt x="79" y="463" on="0"/>
        <pt x="97" y="466" on="1"/>
        <pt x="150" y="477" on="0"/>
        <pt x="334" y="406" on="1"/>
        <pt x="363" y="396" on="0"/>
        <pt x="461" y="372" on="0"/>
        <pt x="531" y="359" on="1"/>
        <pt x="546" y="356" on="0"/>
        <pt x="539" y="344" on="1"/>
        <pt x="506" y="287" on="1"/>
        <pt x="503" y="280" on="0"/>
        <pt x="496" y="282" on="1"/>
        <pt x="398" y="305" on="0"/>
        <pt x="318" y="302" on="1"/>
        <pt x="203" y="297" on="0"/>
        <pt x="9" y="211" on="1"/>
        <pt x="-78" y="172" on="0"/>
        <pt x="-28" y="249" on="1"/>
        <pt x="-21" y="259" on="0"/>
        <pt x="45" y="289" on="1"/>
        <pt x="78" y="304" on="0"/>
        <pt x="140" y="326" on="0"/>
        <pt x="168" y="334" on="1"/>
        <pt x="224" y="350" on="0"/>
        <pt x="241" y="357" on="1"/>
        <pt x="202" y="377" on="0"/>
        <pt x="106" y="396" on="0"/>
        <pt x="47" y="394" on="1"/>
        <pt x="37" y="394" on="0"/>
        <pt x="41" y="404" on="1"/>
        <pt x="52" y="438" on="0"/>
      </contour>
    </TTGlyph>
    <TTGlyph name="glyph00053" xMin="-42" yMin="0" xMax="548" yMax="271">
      <contour>
        <pt x="41" y="248" on="1"/>
        <pt x="62" y="271" on="0"/>
        <pt x="153" y="246" on="1"/>
        <pt x="167" y="242" on="0"/>
        <pt x="216" y="228" on="0"/>
        <pt x="250" y="217" on="1"/>
        <pt x="321" y="196" on="0"/>
        <pt x="383" y="181" on="1"/>
        <pt x="415" y="174" on="0"/>
        <pt x="491" y="167" on="0"/>
        <pt x="534" y="167" on="1"/>
        <pt x="548" y="167" on="0"/>
        <pt x="542" y="151" on="1"/>
        <pt x="512" y="81" on="0"/>
        <pt x="488" y="84" on="1"/>
        <pt x="353" y="105" on="0"/>
        <pt x="268" y="90" on="1"/>
        <pt x="235" y="84" on="0"/>
        <pt x="132" y="42" on="1"/>
        <pt x="29" y="0" on="0"/>
        <pt x="0" y="0" on="1"/>
        <pt x="-14" y="0" on="0"/>
        <pt x="-20" y="19" on="1"/>
        <pt x="-42" y="82" on="0"/>
        <pt x="0" y="90" on="1"/>
        <pt x="62" y="100" on="0"/>
        <pt x="172" y="126" on="0"/>
        <pt x="218" y="141" on="1"/>
        <pt x="196" y="151" on="0"/>
        <pt x="143" y="168" on="0"/>
        <pt x="112" y="175" on="1"/>
        <pt x="49" y="189" on="0"/>
        <pt x="19" y="186" on="1"/>
        <pt x="12" y="186" on="0"/>
        <pt x="10" y="188" on="1"/>
        <pt x="7" y="191" on="0"/>
        <pt x="16" y="210" on="1"/>
        <pt x="21" y="220" on="0"/>
        <pt x="34" y="239" on="0"/>
      </contour>
    </TTGlyph>
    <TTGlyph name="glyph00054" xMin="-3" yMin="-3" xMax="547" yMax="280">
      <contour>
        <pt x="312" y="225" on="1"/>
        <pt x="332" y="216" on="0"/>
        <pt x="382" y="199" on="0"/>
        <pt x="412" y="191" on="1"/>
        <pt x="442" y="184" on="0"/>
        <pt x="500" y="175" on="0"/>
        <pt x="528" y="176" on="1"/>
        <pt x="537" y="176" on="0"/>
        <pt x="542" y="172" on="1"/>
        <pt x="547" y="168" on="0"/>
        <pt x="543" y="158" on="1"/>
        <pt x="534" y="139" on="0"/>
        <pt x="521" y="111" on="0"/>
        <pt x="516" y="103" on="1"/>
        <pt x="506" y="87" on="0"/>
        <pt x="498" y="87" on="1"/>
        <pt x="471" y="90" on="0"/>
        <pt x="410" y="88" on="0"/>
        <pt x="376" y="82" on="1"/>
        <pt x="342" y="76" on="0"/>
        <pt x="282" y="62" on="0"/>
        <pt x="256" y="53" on="1"/>
        <pt x="106" y="3" on="0"/>
        <pt x="69" y="0" on="1"/>
        <pt x="32" y="-3" on="0"/>
        <pt x="0" y="0" on="1"/>
        <pt x="-3" y="96" on="0"/>
        <pt x="3" y="107" on="1"/>
        <pt x="17" y="134" on="0"/>
        <pt x="49" y="184" on="0"/>
        <pt x="67" y="207" on="1"/>
        <pt x="125" y="280" on="0"/>
        <pt x="161" y="278" on="1"/>
        <pt x="179" y="277" on="0"/>
        <pt x="255" y="251" on="0"/>
      </contour>
      <contour>
        <pt x="248" y="145" on="1"/>
        <pt x="186" y="180" on="0"/>
        <pt x="128" y="182" on="1"/>
        <pt x="98" y="182" on="0"/>
        <pt x="71" y="158" on="1"/>
        <pt x="45" y="135" on="0"/>
        <pt x="30" y="92" on="1"/>
        <pt x="76" y="89" on="0"/>
        <pt x="205" y="122" on="1"/>
        <pt x="248" y="133" on="1"/>
        <pt x="253" y="135" on="0"/>
        <pt x="254" y="137" on="1"/>
        <pt x="256" y="140" on="0"/>
      </contour>
    </TTGlyph>
    <TTGlyph name="glyph00055" xMin="-22" yMin="-27" xMax="567" yMax="297">
      <contour>
        <pt x="43" y="203" on="1"/>
        <pt x="80" y="262" on="0"/>
        <pt x="112" y="279" on="1"/>
        <pt x="144" y="297" on="0"/>
        <pt x="178" y="285" on="1"/>
        <pt x="334" y="228" on="0"/>
        <pt x="420" y="219" on="1"/>
        <pt x="516" y="219" on="1"/>
        <pt x="528" y="219" on="0"/>
        <pt x="523" y="205" on="1"/>
        <pt x="502" y="143" on="1"/>
        <pt x="499" y="135" on="0"/>
        <pt x="484" y="135" on="1"/>
        <pt x="447" y="137" on="0"/>
        <pt x="389" y="131" on="0"/>
        <pt x="369" y="125" on="1"/>
        <pt x="375" y="103" on="0"/>
        <pt x="388" y="97" on="1"/>
        <pt x="435" y="76" on="0"/>
        <pt x="535" y="90" on="1"/>
        <pt x="567" y="95" on="0"/>
        <pt x="550" y="22" on="1"/>
        <pt x="546" y="2" on="0"/>
        <pt x="535" y="0" on="1"/>
        <pt x="366" y="-27" on="0"/>
        <pt x="331" y="33" on="1"/>
        <pt x="320" y="50" on="0"/>
        <pt x="334" y="115" on="1"/>
        <pt x="324" y="111" on="0"/>
        <pt x="282" y="93" on="0"/>
        <pt x="250" y="78" on="1"/>
        <pt x="187" y="49" on="0"/>
        <pt x="146" y="32" on="1"/>
        <pt x="64" y="0" on="0"/>
        <pt x="0" y="0" on="1"/>
        <pt x="-22" y="43" on="0"/>
        <pt x="-3" y="97" on="1"/>
        <pt x="8" y="147" on="0"/>
      </contour>
      <contour>
        <pt x="242" y="156" on="1"/>
        <pt x="138" y="201" on="0"/>
        <pt x="93" y="185" on="1"/>
        <pt x="50" y="170" on="0"/>
        <pt x="18" y="98" on="1"/>
        <pt x="23" y="93" on="0"/>
        <pt x="35" y="93" on="1"/>
        <pt x="112" y="98" on="0"/>
      </contour>
    </TTGlyph>
    <TTGlyph name="glyph00056" xMin="-30" yMin="0" xMax="593" yMax="274">
      <component glyphName="glyph00048" x="0" y="0" flags="0x1204"/>
    </TTGlyph>
    <TTGlyph name="glyph00057" xMin="-42" yMin="179" xMax="672" yMax="575">
      <contour>
        <pt x="154" y="480" on="1"/>
        <pt x="172" y="566" on="0"/>
        <pt x="246" y="572" on="1"/>
        <pt x="285" y="575" on="0"/>
        <pt x="371" y="525" on="1"/>
        <pt x="493" y="455" on="0"/>
        <pt x="649" y="443" on="1"/>
        <pt x="672" y="441" on="0"/>
        <pt x="662" y="419" on="1"/>
        <pt x="643" y="377" on="1"/>
        <pt x="635" y="361" on="0"/>
        <pt x="620" y="364" on="1"/>
        <pt x="585" y="372" on="0"/>
        <pt x="502" y="377" on="0"/>
        <pt x="452" y="375" on="1"/>
        <pt x="329" y="370" on="0"/>
        <pt x="154" y="288" on="1"/>
        <pt x="57" y="242" on="0"/>
        <pt x="3" y="179" on="1"/>
        <pt x="-42" y="179" on="1"/>
        <pt x="-35" y="195" on="0"/>
        <pt x="-19" y="225" on="0"/>
        <pt x="-11" y="239" on="1"/>
        <pt x="137" y="357" on="0"/>
        <pt x="378" y="427" on="1"/>
        <pt x="387" y="430" on="0"/>
        <pt x="379" y="434" on="1"/>
        <pt x="336" y="456" on="0"/>
        <pt x="271" y="483" on="0"/>
        <pt x="249" y="487" on="1"/>
        <pt x="209" y="495" on="0"/>
        <pt x="167" y="476" on="1"/>
        <pt x="153" y="470" on="0"/>
      </contour>
    </TTGlyph>
    <TTGlyph name="glyph00058" xMin="48" yMin="-508" xMax="752" yMax="240">
      <component glyphName="glyph00050" x="0" y="0" flags="0x1004"/>
    </TTGlyph>
    <TTGlyph name="glyph00059" xMin="-16" yMin="198" xMax="423" yMax="546">
      <contour>
        <pt x="328" y="345" on="1"/>
        <pt x="143" y="306" on="0"/>
        <pt x="40" y="214" on="1"/>
        <pt x="22" y="198" on="0"/>
        <pt x="9" y="205" on="1"/>
        <pt x="-16" y="220" on="0"/>
        <pt x="32" y="266" on="1"/>
        <pt x="117" y="346" on="0"/>
        <pt x="257" y="396" on="1"/>
        <pt x="238" y="424" on="1"/>
        <pt x="229" y="438" on="0"/>
        <pt x="235" y="452" on="1"/>
        <pt x="263" y="510" on="0"/>
        <pt x="282" y="531" on="1"/>
        <pt x="295" y="546" on="0"/>
        <pt x="307" y="538" on="1"/>
        <pt x="383" y="497" on="0"/>
        <pt x="414" y="466" on="1"/>
        <pt x="423" y="457" on="0"/>
        <pt x="417" y="437" on="1"/>
        <pt x="408" y="411" on="0"/>
        <pt x="368" y="360" on="1"/>
        <pt x="362" y="353" on="0"/>
      </contour>
    </TTGlyph>
    <TTGlyph name="glyph00060" xMin="68" yMin="-8" xMax="251" yMax="227">
      <contour>
        <pt x="120" y="208" on="1"/>
        <pt x="127" y="227" on="0"/>
        <pt x="148" y="212" on="1"/>
        <pt x="236" y="151" on="1"/>
        <pt x="251" y="141" on="0"/>
        <pt x="239" y="111" on="1"/>
        <pt x="200" y="18" on="1"/>
        <pt x="189" y="-8" on="0"/>
        <pt x="162" y="13" on="1"/>
        <pt x="87" y="70" on="1"/>
        <pt x="68" y="85" on="0"/>
        <pt x="75" y="101" on="1"/>
      </contour>
    </TTGlyph>
    <TTGlyph name="glyph00061" xMin="-73" yMin="182" xMax="453" yMax="416">
      <contour>
        <pt x="58" y="416" on="1"/>
        <pt x="92" y="416" on="0"/>
        <pt x="123" y="398" on="1"/>
        <pt x="140" y="389" on="0"/>
        <pt x="174" y="368" on="0"/>
        <pt x="192" y="355" on="1"/>
        <pt x="294" y="285" on="0"/>
        <pt x="444" y="258" on="1"/>
        <pt x="453" y="257" on="0"/>
        <pt x="451" y="249" on="1"/>
        <pt x="447" y="226" on="0"/>
        <pt x="424" y="190" on="1"/>
        <pt x="419" y="182" on="0"/>
        <pt x="410" y="185" on="1"/>
        <pt x="294" y="222" on="0"/>
        <pt x="218" y="229" on="1"/>
        <pt x="137" y="238" on="0"/>
        <pt x="69" y="223" on="1"/>
        <pt x="-8" y="206" on="0"/>
        <pt x="-53" y="215" on="1"/>
        <pt x="-73" y="219" on="0"/>
        <pt x="-65" y="226" on="1"/>
        <pt x="-5" y="274" on="0"/>
        <pt x="153" y="277" on="1"/>
        <pt x="61" y="357" on="0"/>
        <pt x="-55" y="333" on="1"/>
        <pt x="-60" y="332" on="0"/>
        <pt x="-62" y="338" on="1"/>
        <pt x="-64" y="344" on="0"/>
        <pt x="-59" y="349" on="1"/>
        <pt x="-7" y="416" on="0"/>
      </contour>
    </TTGlyph>
    <TTGlyph name="glyph00062" xMin="-39" yMin="0" xMax="315" yMax="242">
      <contour>
        <pt x="107" y="175" on="1"/>
        <pt x="124" y="209" on="0"/>
        <pt x="148" y="227" on="1"/>
        <pt x="153" y="230" on="0"/>
        <pt x="170" y="234" on="0"/>
        <pt x="183" y="235" on="1"/>
        <pt x="238" y="242" on="0"/>
        <pt x="273" y="198" on="1"/>
        <pt x="315" y="145" on="0"/>
        <pt x="308" y="112" on="1"/>
        <pt x="299" y="72" on="0"/>
        <pt x="279" y="45" on="1"/>
        <pt x="275" y="39" on="0"/>
        <pt x="271" y="39" on="1"/>
        <pt x="177" y="45" on="0"/>
        <pt x="94" y="99" on="1"/>
        <pt x="49" y="0" on="0"/>
        <pt x="0" y="0" on="1"/>
        <pt x="-14" y="0" on="0"/>
        <pt x="-20" y="22" on="1"/>
        <pt x="-39" y="90" on="0"/>
        <pt x="0" y="90" on="1"/>
        <pt x="53" y="90" on="0"/>
        <pt x="82" y="122" on="1"/>
        <pt x="86" y="131" on="0"/>
        <pt x="98" y="158" on="0"/>
      </contour>
      <contour>
        <pt x="220" y="168" on="1"/>
        <pt x="162" y="204" on="0"/>
        <pt x="138" y="168" on="1"/>
        <pt x="205" y="130" on="0"/>
        <pt x="262" y="125" on="1"/>
        <pt x="253" y="147" on="0"/>
      </contour>
    </TTGlyph>
    <TTGlyph name="glyph00063" xMin="-86" yMin="206" xMax="209" yMax="545">
      <contour>
        <pt x="114" y="338" on="1"/>
        <pt x="-3" y="332" on="0"/>
        <pt x="-42" y="279" on="1"/>
        <pt x="-57" y="253" on="1"/>
        <pt x="-86" y="206" on="0"/>
        <pt x="-73" y="262" on="1"/>
        <pt x="-61" y="313" on="0"/>
        <pt x="-24" y="356" on="1"/>
        <pt x="-12" y="370" on="0"/>
        <pt x="14" y="392" on="0"/>
        <pt x="29" y="399" on="1"/>
        <pt x="10" y="427" on="1"/>
        <pt x="1" y="441" on="0"/>
        <pt x="7" y="455" on="1"/>
        <pt x="20" y="483" on="0"/>
        <pt x="44" y="522" on="0"/>
        <pt x="54" y="534" on="1"/>
        <pt x="64" y="545" on="0"/>
        <pt x="79" y="541" on="1"/>
        <pt x="152" y="517" on="0"/>
        <pt x="199" y="470" on="1"/>
        <pt x="209" y="460" on="0"/>
        <pt x="203" y="438" on="1"/>
        <pt x="202" y="437" on="0"/>
        <pt x="183" y="398" on="0"/>
        <pt x="164" y="361" on="1"/>
        <pt x="154" y="340" on="0"/>
      </contour>
    </TTGlyph>
    <TTGlyph name="glyph00064" xMin="-26" yMin="-10" xMax="312" yMax="341">
      <component glyphName="glyph00028" x="0" y="0" flags="0x1204"/>
    </TTGlyph>
    <TTGlyph name="glyph00065" xMin="-59" yMin="147" xMax="90" yMax="777">
      <contour>
        <pt x="6" y="761" on="1"/>
        <pt x="14" y="777" on="0"/>
        <pt x="20" y="761" on="1"/>
        <pt x="27" y="744" on="0"/>
        <pt x="56" y="709" on="0"/>
        <pt x="78" y="692" on="1"/>
        <pt x="90" y="683" on="0"/>
        <pt x="83" y="672" on="1"/>
        <pt x="80" y="667" on="0"/>
        <pt x="72" y="653" on="0"/>
        <pt x="67" y="645" on="1"/>
        <pt x="62" y="637" on="0"/>
        <pt x="54" y="626" on="0"/>
        <pt x="52" y="622" on="1"/>
        <pt x="78" y="398" on="1"/>
        <pt x="81" y="367" on="0"/>
        <pt x="79" y="300" on="0"/>
        <pt x="73" y="264" on="1"/>
        <pt x="70" y="239" on="0"/>
        <pt x="58" y="210" on="1"/>
        <pt x="43" y="178" on="1"/>
        <pt x="30" y="147" on="0"/>
        <pt x="-14" y="159" on="1"/>
        <pt x="-46" y="168" on="0"/>
        <pt x="-53" y="185" on="1"/>
        <pt x="-59" y="202" on="0"/>
        <pt x="-24" y="211" on="1"/>
        <pt x="28" y="223" on="0"/>
        <pt x="48" y="252" on="1"/>
        <pt x="47" y="281" on="0"/>
        <pt x="42" y="343" on="0"/>
        <pt x="38" y="376" on="1"/>
        <pt x="31" y="440" on="0"/>
        <pt x="14" y="542" on="1"/>
        <pt x="6" y="592" on="0"/>
        <pt x="-5" y="652" on="0"/>
        <pt x="-8" y="662" on="1"/>
        <pt x="-20" y="708" on="0"/>
        <pt x="-16" y="716" on="1"/>
      </contour>
    </TTGlyph>
    <TTGlyph name="glyph00066" xMin="22" yMin="-511" xMax="373" yMax="209">
      <contour>
        <pt x="119" y="128" on="1"/>
        <pt x="142" y="192" on="0"/>
        <pt x="153" y="200" on="1"/>
        <pt x="166" y="209" on="0"/>
        <pt x="230" y="186" on="1"/>
        <pt x="297" y="162" on="0"/>
        <pt x="355" y="118" on="1"/>
        <pt x="373" y="105" on="0"/>
        <pt x="365" y="82" on="1"/>
        <pt x="358" y="59" on="0"/>
        <pt x="348" y="33" on="0"/>
        <pt x="347" y="31" on="1"/>
        <pt x="339" y="13" on="0"/>
        <pt x="328" y="14" on="1"/>
        <pt x="221" y="28" on="0"/>
        <pt x="138" y="5" on="1"/>
        <pt x="88" y="-8" on="0"/>
        <pt x="65" y="-33" on="1"/>
        <pt x="64" y="-36" on="0"/>
        <pt x="68" y="-69" on="0"/>
        <pt x="73" y="-99" on="1"/>
        <pt x="95" y="-241" on="1"/>
        <pt x="102" y="-282" on="0"/>
        <pt x="111" y="-343" on="0"/>
        <pt x="112" y="-362" on="1"/>
        <pt x="118" y="-445" on="0"/>
        <pt x="101" y="-499" on="1"/>
        <pt x="96" y="-511" on="0"/>
        <pt x="87" y="-510" on="1"/>
        <pt x="74" y="-509" on="0"/>
        <pt x="77" y="-483" on="1"/>
        <pt x="83" y="-419" on="0"/>
        <pt x="37" y="-184" on="1"/>
        <pt x="22" y="-97" on="0"/>
        <pt x="40" y="-38" on="1"/>
        <pt x="49" y="-9" on="0"/>
        <pt x="71" y="36" on="0"/>
        <pt x="84" y="51" on="1"/>
        <pt x="98" y="66" on="0"/>
        <pt x="133" y="90" on="0"/>
        <pt x="153" y="100" on="1"/>
        <pt x="152" y="101" on="0"/>
        <pt x="146" y="103" on="0"/>
        <pt x="141" y="104" on="1"/>
        <pt x="137" y="106" on="0"/>
        <pt x="128" y="109" on="0"/>
        <pt x="123" y="111" on="1"/>
        <pt x="114" y="115" on="0"/>
      </contour>
    </TTGlyph>
    <TTGlyph name="glyph00067" xMin="-34" yMin="-23" xMax="105" yMax="662">
      <contour>
        <pt x="12" y="610" on="1"/>
        <pt x="31" y="653" on="1"/>
        <pt x="34" y="662" on="0"/>
        <pt x="42" y="662" on="1"/>
        <pt x="49" y="662" on="0"/>
        <pt x="52" y="651" on="1"/>
        <pt x="70" y="602" on="0"/>
        <pt x="92" y="580" on="1"/>
        <pt x="105" y="567" on="0"/>
        <pt x="74" y="532" on="1"/>
        <pt x="67" y="525" on="0"/>
        <pt x="67" y="516" on="1"/>
        <pt x="69" y="491" on="0"/>
        <pt x="75" y="424" on="0"/>
        <pt x="79" y="382" on="1"/>
        <pt x="88" y="289" on="1"/>
        <pt x="94" y="225" on="0"/>
        <pt x="97" y="130" on="0"/>
        <pt x="92" y="101" on="1"/>
        <pt x="77" y="-8" on="0"/>
        <pt x="-1" y="-20" on="1"/>
        <pt x="-18" y="-23" on="0"/>
        <pt x="-25" y="29" on="1"/>
        <pt x="-34" y="82" on="0"/>
        <pt x="-16" y="96" on="1"/>
        <pt x="-10" y="100" on="0"/>
        <pt x="-4" y="99" on="1"/>
        <pt x="34" y="92" on="0"/>
        <pt x="53" y="103" on="1"/>
        <pt x="55" y="129" on="0"/>
        <pt x="49" y="247" on="0"/>
        <pt x="39" y="339" on="1"/>
        <pt x="20" y="524" on="0"/>
        <pt x="15" y="570" on="1"/>
      </contour>
    </TTGlyph>
    <TTGlyph name="glyph00068" xMin="-32" yMin="-25" xMax="279" yMax="661">
      <contour>
        <pt x="104" y="545" on="1"/>
        <pt x="128" y="246" on="0"/>
        <pt x="153" y="177" on="1"/>
        <pt x="179" y="106" on="0"/>
        <pt x="228" y="96" on="1"/>
        <pt x="279" y="86" on="0"/>
        <pt x="256" y="12" on="1"/>
        <pt x="247" y="-15" on="0"/>
        <pt x="229" y="-18" on="1"/>
        <pt x="193" y="-25" on="0"/>
        <pt x="159" y="7" on="1"/>
        <pt x="126" y="39" on="0"/>
        <pt x="100" y="129" on="1"/>
        <pt x="70" y="1" on="0"/>
        <pt x="0" y="0" on="1"/>
        <pt x="-9" y="0" on="0"/>
        <pt x="-18" y="28" on="1"/>
        <pt x="-32" y="82" on="0"/>
        <pt x="0" y="90" on="1"/>
        <pt x="53" y="104" on="0"/>
        <pt x="67" y="125" on="1"/>
        <pt x="82" y="148" on="0"/>
        <pt x="85" y="185" on="1"/>
        <pt x="48" y="571" on="1"/>
        <pt x="45" y="595" on="0"/>
        <pt x="53" y="608" on="1"/>
        <pt x="77" y="651" on="1"/>
        <pt x="83" y="661" on="0"/>
        <pt x="89" y="659" on="1"/>
        <pt x="95" y="658" on="0"/>
        <pt x="95" y="649" on="1"/>
        <pt x="95" y="645" on="0"/>
        <pt x="100" y="593" on="0"/>
      </contour>
    </TTGlyph>
    <TTGlyph name="glyph00069" xMin="-325" yMin="-48" xMax="252" yMax="663">
      <contour>
        <pt x="180" y="126" on="1"/>
        <pt x="196" y="105" on="0"/>
        <pt x="217" y="97" on="1"/>
        <pt x="233" y="93" on="0"/>
        <pt x="240" y="79" on="1"/>
        <pt x="252" y="55" on="0"/>
        <pt x="240" y="8" on="1"/>
        <pt x="234" y="-18" on="0"/>
        <pt x="220" y="-18" on="1"/>
        <pt x="158" y="-16" on="0"/>
        <pt x="123" y="68" on="1"/>
        <pt x="115" y="88" on="0"/>
        <pt x="87" y="228" on="0"/>
        <pt x="68" y="347" on="1"/>
        <pt x="37" y="110" on="0"/>
        <pt x="-70" y="14" on="1"/>
        <pt x="-140" y="-48" on="0"/>
        <pt x="-312" y="-48" on="1"/>
        <pt x="-325" y="-48" on="0"/>
        <pt x="-323" y="-37" on="1"/>
        <pt x="-321" y="-30" on="0"/>
        <pt x="-316" y="-29" on="1"/>
        <pt x="-200" y="3" on="0"/>
        <pt x="-125" y="56" on="1"/>
        <pt x="-13" y="135" on="0"/>
        <pt x="18" y="235" on="1"/>
        <pt x="55" y="355" on="0"/>
        <pt x="34" y="573" on="1"/>
        <pt x="31" y="597" on="0"/>
        <pt x="39" y="610" on="1"/>
        <pt x="63" y="653" on="1"/>
        <pt x="69" y="663" on="0"/>
        <pt x="75" y="661" on="1"/>
        <pt x="80" y="660" on="0"/>
        <pt x="82" y="647" on="1"/>
        <pt x="121" y="206" on="0"/>
      </contour>
    </TTGlyph>
    <TTGlyph name="glyph00070" xMin="48" yMin="-357" xMax="659" yMax="665">
      <contour>
        <pt x="620" y="-18" on="1"/>
        <pt x="582" y="-28" on="0"/>
        <pt x="535" y="22" on="1"/>
        <pt x="543" y="-211" on="0"/>
        <pt x="465" y="-282" on="1"/>
        <pt x="383" y="-357" on="0"/>
        <pt x="256" y="-357" on="1"/>
        <pt x="158" y="-357" on="0"/>
        <pt x="103" y="-298" on="1"/>
        <pt x="48" y="-240" on="0"/>
        <pt x="64" y="-144" on="1"/>
        <pt x="81" y="-48" on="0"/>
        <pt x="159" y="49" on="1"/>
        <pt x="164" y="55" on="0"/>
        <pt x="170" y="54" on="1"/>
        <pt x="177" y="54" on="0"/>
        <pt x="180" y="47" on="1"/>
        <pt x="183" y="42" on="0"/>
        <pt x="176" y="32" on="1"/>
        <pt x="88" y="-89" on="0"/>
        <pt x="118" y="-164" on="1"/>
        <pt x="154" y="-255" on="0"/>
        <pt x="294" y="-252" on="1"/>
        <pt x="350" y="-250" on="0"/>
        <pt x="453" y="-207" on="0"/>
        <pt x="499" y="-164" on="1"/>
        <pt x="446" y="520" on="1"/>
        <pt x="443" y="552" on="0"/>
        <pt x="450" y="569" on="1"/>
        <pt x="468" y="620" on="1"/>
        <pt x="484" y="665" on="0"/>
        <pt x="489" y="607" on="1"/>
        <pt x="514" y="345" on="1"/>
        <pt x="535" y="115" on="0"/>
        <pt x="615" y="97" on="1"/>
        <pt x="659" y="87" on="0"/>
        <pt x="650" y="36" on="1"/>
        <pt x="641" y="-12" on="0"/>
      </contour>
    </TTGlyph>
    <TTGlyph name="glyph00071" xMin="-36" yMin="-73" xMax="228" yMax="697">
      <contour>
        <pt x="17" y="-61" on="1"/>
        <pt x="-12" y="-56" on="0"/>
        <pt x="-24" y="0" on="1"/>
        <pt x="-36" y="56" on="0"/>
        <pt x="-24" y="70" on="1"/>
        <pt x="-16" y="78" on="0"/>
        <pt x="-4" y="65" on="1"/>
        <pt x="35" y="24" on="0"/>
        <pt x="88" y="51" on="1"/>
        <pt x="79" y="109" on="0"/>
        <pt x="62" y="240" on="0"/>
        <pt x="54" y="313" on="1"/>
        <pt x="23" y="593" on="1"/>
        <pt x="20" y="627" on="0"/>
        <pt x="28" y="638" on="1"/>
        <pt x="53" y="677" on="1"/>
        <pt x="66" y="697" on="0"/>
        <pt x="67" y="670" on="1"/>
        <pt x="104" y="364" on="1"/>
        <pt x="131" y="138" on="0"/>
        <pt x="199" y="90" on="1"/>
        <pt x="228" y="69" on="0"/>
        <pt x="215" y="23" on="1"/>
        <pt x="208" y="0" on="0"/>
        <pt x="199" y="0" on="1"/>
        <pt x="149" y="0" on="0"/>
        <pt x="111" y="84" on="1"/>
        <pt x="102" y="-73" on="0"/>
      </contour>
    </TTGlyph>
    <TTGlyph name="glyph00072" xMin="-325" yMin="-61" xMax="246" yMax="663">
      <contour>
        <pt x="172" y="126" on="1"/>
        <pt x="179" y="110" on="0"/>
        <pt x="197" y="80" on="0"/>
        <pt x="208" y="64" on="1"/>
        <pt x="208" y="64" on="0"/>
        <pt x="215" y="55" on="0"/>
        <pt x="222" y="46" on="1"/>
        <pt x="246" y="15" on="0"/>
        <pt x="238" y="-53" on="1"/>
        <pt x="237" y="-61" on="0"/>
        <pt x="232" y="-61" on="1"/>
        <pt x="168" y="-58" on="0"/>
        <pt x="123" y="68" on="1"/>
        <pt x="114" y="94" on="0"/>
        <pt x="86" y="234" on="0"/>
        <pt x="68" y="347" on="1"/>
        <pt x="37" y="110" on="0"/>
        <pt x="-70" y="14" on="1"/>
        <pt x="-140" y="-48" on="0"/>
        <pt x="-312" y="-48" on="1"/>
        <pt x="-325" y="-48" on="0"/>
        <pt x="-323" y="-37" on="1"/>
        <pt x="-321" y="-30" on="0"/>
        <pt x="-316" y="-29" on="1"/>
        <pt x="-200" y="3" on="0"/>
        <pt x="-125" y="56" on="1"/>
        <pt x="-13" y="135" on="0"/>
        <pt x="18" y="235" on="1"/>
        <pt x="55" y="355" on="0"/>
        <pt x="34" y="573" on="1"/>
        <pt x="31" y="597" on="0"/>
        <pt x="39" y="610" on="1"/>
        <pt x="63" y="653" on="1"/>
        <pt x="69" y="663" on="0"/>
        <pt x="75" y="661" on="1"/>
        <pt x="80" y="660" on="0"/>
        <pt x="82" y="647" on="1"/>
        <pt x="119" y="240" on="0"/>
      </contour>
    </TTGlyph>
    <TTGlyph name="glyph00073" xMin="-32" yMin="-62" xMax="234" yMax="661">
      <contour>
        <pt x="104" y="545" on="1"/>
        <pt x="115" y="408" on="0"/>
        <pt x="141" y="210" on="0"/>
        <pt x="156" y="149" on="1"/>
        <pt x="168" y="100" on="0"/>
        <pt x="198" y="65" on="1"/>
        <pt x="201" y="62" on="0"/>
        <pt x="208" y="53" on="0"/>
        <pt x="213" y="45" on="1"/>
        <pt x="234" y="5" on="0"/>
        <pt x="229" y="-50" on="1"/>
        <pt x="229" y="-62" on="0"/>
        <pt x="219" y="-61" on="1"/>
        <pt x="135" y="-49" on="0"/>
        <pt x="100" y="129" on="1"/>
        <pt x="70" y="0" on="0"/>
        <pt x="0" y="0" on="1"/>
        <pt x="-9" y="0" on="0"/>
        <pt x="-18" y="28" on="1"/>
        <pt x="-32" y="82" on="0"/>
        <pt x="0" y="90" on="1"/>
        <pt x="53" y="104" on="0"/>
        <pt x="67" y="125" on="1"/>
        <pt x="82" y="148" on="0"/>
        <pt x="85" y="185" on="1"/>
        <pt x="48" y="571" on="1"/>
        <pt x="45" y="595" on="0"/>
        <pt x="53" y="608" on="1"/>
        <pt x="77" y="651" on="1"/>
        <pt x="83" y="661" on="0"/>
        <pt x="89" y="659" on="1"/>
        <pt x="96" y="656" on="0"/>
        <pt x="96" y="649" on="1"/>
        <pt x="96" y="649" on="0"/>
        <pt x="100" y="597" on="0"/>
      </contour>
    </TTGlyph>
    <TTGlyph name="glyph00074" xMin="48" yMin="-357" xMax="625" yMax="665">
      <contour>
        <pt x="535" y="-2" on="1"/>
        <pt x="538" y="-215" on="0"/>
        <pt x="465" y="-282" on="1"/>
        <pt x="383" y="-357" on="0"/>
        <pt x="256" y="-357" on="1"/>
        <pt x="158" y="-357" on="0"/>
        <pt x="103" y="-298" on="1"/>
        <pt x="48" y="-240" on="0"/>
        <pt x="64" y="-144" on="1"/>
        <pt x="78" y="-58" on="0"/>
        <pt x="159" y="49" on="1"/>
        <pt x="164" y="55" on="0"/>
        <pt x="170" y="54" on="1"/>
        <pt x="177" y="54" on="0"/>
        <pt x="180" y="47" on="1"/>
        <pt x="183" y="42" on="0"/>
        <pt x="176" y="32" on="1"/>
        <pt x="88" y="-89" on="0"/>
        <pt x="118" y="-164" on="1"/>
        <pt x="154" y="-255" on="0"/>
        <pt x="294" y="-252" on="1"/>
        <pt x="350" y="-250" on="0"/>
        <pt x="453" y="-207" on="0"/>
        <pt x="499" y="-164" on="1"/>
        <pt x="446" y="520" on="1"/>
        <pt x="443" y="552" on="0"/>
        <pt x="450" y="569" on="1"/>
        <pt x="468" y="620" on="1"/>
        <pt x="484" y="665" on="0"/>
        <pt x="489" y="607" on="1"/>
        <pt x="514" y="345" on="1"/>
        <pt x="524" y="233" on="0"/>
        <pt x="547" y="149" on="1"/>
        <pt x="562" y="91" on="0"/>
        <pt x="588" y="65" on="1"/>
        <pt x="599" y="54" on="0"/>
        <pt x="604" y="45" on="1"/>
        <pt x="625" y="8" on="0"/>
        <pt x="620" y="-50" on="1"/>
        <pt x="618" y="-63" on="0"/>
        <pt x="609" y="-61" on="1"/>
        <pt x="565" y="-53" on="0"/>
      </contour>
    </TTGlyph>
    <TTGlyph name="glyph00075" xMin="-70" yMin="-24" xMax="335" yMax="663">
      <contour>
        <pt x="155" y="157" on="1"/>
        <pt x="123" y="109" on="0"/>
        <pt x="62" y="86" on="1"/>
        <pt x="3" y="63" on="0"/>
        <pt x="-42" y="114" on="1"/>
        <pt x="-70" y="145" on="0"/>
        <pt x="-64" y="169" on="1"/>
        <pt x="-61" y="184" on="0"/>
        <pt x="-44" y="184" on="1"/>
        <pt x="-44" y="184" on="0"/>
        <pt x="-14" y="170" on="1"/>
        <pt x="13" y="157" on="0"/>
        <pt x="33" y="159" on="1"/>
        <pt x="149" y="170" on="0"/>
        <pt x="143" y="222" on="1"/>
        <pt x="142" y="227" on="0"/>
        <pt x="134" y="322" on="0"/>
        <pt x="126" y="411" on="1"/>
        <pt x="122" y="467" on="0"/>
        <pt x="115" y="549" on="0"/>
        <pt x="112" y="574" on="1"/>
        <pt x="111" y="592" on="0"/>
        <pt x="118" y="608" on="1"/>
        <pt x="139" y="652" on="1"/>
        <pt x="145" y="663" on="0"/>
        <pt x="150" y="659" on="1"/>
        <pt x="156" y="654" on="0"/>
        <pt x="158" y="645" on="1"/>
        <pt x="180" y="419" on="1"/>
        <pt x="192" y="256" on="0"/>
        <pt x="216" y="177" on="1"/>
        <pt x="237" y="108" on="0"/>
        <pt x="292" y="96" on="1"/>
        <pt x="309" y="93" on="0"/>
        <pt x="317" y="82" on="1"/>
        <pt x="335" y="61" on="0"/>
        <pt x="319" y="12" on="1"/>
        <pt x="310" y="-15" on="0"/>
        <pt x="292" y="-18" on="1"/>
        <pt x="257" y="-24" on="0"/>
        <pt x="222" y="7" on="1"/>
        <pt x="185" y="40" on="0"/>
      </contour>
    </TTGlyph>
    <TTGlyph name="glyph00076" xMin="-70" yMin="-62" xMax="297" yMax="663">
      <contour>
        <pt x="219" y="149" on="1"/>
        <pt x="226" y="121" on="0"/>
        <pt x="248" y="79" on="0"/>
        <pt x="261" y="65" on="1"/>
        <pt x="269" y="57" on="0"/>
        <pt x="276" y="45" on="1"/>
        <pt x="297" y="8" on="0"/>
        <pt x="292" y="-50" on="1"/>
        <pt x="290" y="-62" on="0"/>
        <pt x="282" y="-61" on="1"/>
        <pt x="196" y="-52" on="0"/>
        <pt x="157" y="157" on="1"/>
        <pt x="127" y="111" on="0"/>
        <pt x="62" y="86" on="1"/>
        <pt x="3" y="63" on="0"/>
        <pt x="-42" y="114" on="1"/>
        <pt x="-70" y="145" on="0"/>
        <pt x="-64" y="169" on="1"/>
        <pt x="-61" y="184" on="0"/>
        <pt x="-44" y="184" on="1"/>
        <pt x="-44" y="184" on="0"/>
        <pt x="-14" y="170" on="1"/>
        <pt x="13" y="157" on="0"/>
        <pt x="33" y="159" on="1"/>
        <pt x="149" y="170" on="0"/>
        <pt x="143" y="222" on="1"/>
        <pt x="142" y="227" on="0"/>
        <pt x="134" y="322" on="0"/>
        <pt x="126" y="411" on="1"/>
        <pt x="122" y="467" on="0"/>
        <pt x="115" y="549" on="0"/>
        <pt x="112" y="574" on="1"/>
        <pt x="111" y="592" on="0"/>
        <pt x="118" y="608" on="1"/>
        <pt x="139" y="652" on="1"/>
        <pt x="145" y="663" on="0"/>
        <pt x="150" y="659" on="1"/>
        <pt x="156" y="654" on="0"/>
        <pt x="158" y="645" on="1"/>
        <pt x="180" y="419" on="1"/>
        <pt x="192" y="257" on="0"/>
      </contour>
    </TTGlyph>
    <TTGlyph name="glyph00077" xMin="39" yMin="0" xMax="256" yMax="727">
      <component glyphName="glyph00008" x="0" y="0" flags="0x1204"/>
    </TTGlyph>
    <TTGlyph name="glyph00078" xMin="34" yMin="0" xMax="316" yMax="1011">
      <component glyphName="glyph00008" x="60" y="0" flags="0x1004"/>
      <component glyphName="glyph00142" x="152" y="332" flags="0x1004"/>
    </TTGlyph>
    <TTGlyph name="glyph00079" xMin="53" yMin="-541" xMax="754" yMax="260">
      <component glyphName="glyph00010" x="0" y="0" flags="0x1204"/>
    </TTGlyph>
    <TTGlyph name="glyph00080" xMin="-21" yMin="0" xMax="598" yMax="313">
      <component glyphName="glyph00011" x="0" y="0" flags="0x1204"/>
    </TTGlyph>
    <TTGlyph name="glyph00081" xMin="-28" yMin="-5" xMax="650" yMax="313">
      <component glyphName="glyph00013" x="0" y="0" flags="0x1204"/>
    </TTGlyph>
    <TTGlyph name="glyph00082" xMin="53" yMin="-361" xMax="672" yMax="650">
      <component glyphName="glyph00014" x="0" y="0" flags="0x1204"/>
    </TTGlyph>
    <TTGlyph name="glyph00083" xMin="-18" yMin="0" xMax="120" yMax="714">
      <component glyphName="glyph00015" x="0" y="0" flags="0x1204"/>
    </TTGlyph>
    <TTGlyph name="glyph00084" xMin="-35" yMin="-1" xMax="210" yMax="697">
      <component glyphName="glyph00017" x="0" y="0" flags="0x1204"/>
    </TTGlyph>
    <TTGlyph name="glyph00085" xMin="48" yMin="-582" xMax="554" yMax="216">
      <component glyphName="glyph00018" x="0" y="0" flags="0x1204"/>
    </TTGlyph>
    <TTGlyph name="glyph00086" xMin="-31" yMin="0" xMax="328" yMax="318">
      <component glyphName="glyph00019" x="0" y="0" flags="0x1204"/>
    </TTGlyph>
    <TTGlyph name="glyph00087" xMin="-27" yMin="-21" xMax="483" yMax="253">
      <component glyphName="glyph00021" x="0" y="0" flags="0x1204"/>
    </TTGlyph>
    <TTGlyph name="glyph00088" xMin="-42" yMin="0" xMax="299" yMax="763">
      <component glyphName="glyph00022" x="0" y="0" flags="0x1204"/>
    </TTGlyph>
    <TTGlyph name="glyph00089" xMin="56" yMin="-651" xMax="407" yMax="69">
      <component glyphName="glyph00023" x="0" y="0" flags="0x1204"/>
    </TTGlyph>
    <TTGlyph name="glyph00090" xMin="-73" yMin="188" xMax="216" yMax="704">
      <component glyphName="glyph00024" x="0" y="0" flags="0x1204"/>
    </TTGlyph>
    <TTGlyph name="glyph00091" xMin="-34" yMin="274" xMax="73" yMax="738">
      <component glyphName="glyph00025" x="0" y="0" flags="0x1204"/>
    </TTGlyph>
    <TTGlyph name="glyph00092" xMin="-62" yMin="197" xMax="386" yMax="749">
      <component glyphName="glyph00026" x="0" y="0" flags="0x1204"/>
    </TTGlyph>
    <TTGlyph name="glyph00093" xMin="-30" yMin="0" xMax="593" yMax="274">
      <component glyphName="glyph00027" x="0" y="0" flags="0x1204"/>
    </TTGlyph>
    <TTGlyph name="glyph00094" xMin="-88" yMin="103" xMax="41" yMax="718">
      <component glyphName="glyph00029" x="0" y="0" flags="0x1204"/>
    </TTGlyph>
    <TTGlyph name="glyph00095" xMin="-38" yMin="-14" xMax="295" yMax="198">
      <component glyphName="glyph00030" x="0" y="0" flags="0x1204"/>
    </TTGlyph>
    <TTGlyph name="glyph00096" xMin="-40" yMin="23" xMax="262" yMax="730">
      <component glyphName="glyph00031" x="0" y="0" flags="0x1204"/>
    </TTGlyph>
    <TTGlyph name="glyph00097" xMin="60" yMin="-47" xMax="510" yMax="711">
      <component glyphName="glyph00032" x="0" y="0" flags="0x1204"/>
    </TTGlyph>
    <TTGlyph name="glyph00098" xMin="-8" yMin="-47" xMax="510" yMax="1001">
      <component glyphName="glyph00032" x="0" y="0" flags="0x1204"/>
      <component glyphName="glyph00142" x="110" y="322" flags="0x1004"/>
    </TTGlyph>
    <TTGlyph name="glyph00099" xMin="-23" yMin="347" xMax="131" yMax="729">
      <component glyphName="glyph00033" x="0" y="0" flags="0x1204"/>
    </TTGlyph>
    <TTGlyph name="glyph00100" xMin="-62" yMin="188" xMax="440" yMax="401">
      <component glyphName="glyph00034" x="0" y="0" flags="0x1204"/>
    </TTGlyph>
    <TTGlyph name="glyph00101" xMin="-26" yMin="0" xMax="262" yMax="223">
      <component glyphName="glyph00035" x="0" y="0" flags="0x1204"/>
    </TTGlyph>
    <TTGlyph name="glyph00102" xMin="-30" yMin="0" xMax="593" yMax="274">
      <component glyphName="glyph00036" x="0" y="0" flags="0x1204"/>
    </TTGlyph>
    <TTGlyph name="glyph00103" xMin="-9" yMin="205" xMax="598" yMax="503">
      <component glyphName="glyph00037" x="0" y="0" flags="0x1204"/>
    </TTGlyph>
    <TTGlyph name="glyph00104" xMin="-42" yMin="228" xMax="415" yMax="547">
      <component glyphName="glyph00038" x="0" y="0" flags="0x1204"/>
    </TTGlyph>
    <TTGlyph name="glyph00105" xMin="-279" yMin="346" xMax="182" yMax="675">
      <component glyphName="glyph00039" x="0" y="0" flags="0x1204"/>
    </TTGlyph>
    <TTGlyph name="glyph00106" xMin="-109" yMin="184" xMax="485" yMax="419">
      <component glyphName="glyph00040" x="0" y="0" flags="0x1204"/>
    </TTGlyph>
    <TTGlyph name="glyph00107" xMin="-50" yMin="355" xMax="75" yMax="754">
      <component glyphName="glyph00041" x="0" y="0" flags="0x1204"/>
    </TTGlyph>
    <TTGlyph name="glyph00108" xMin="-27" yMin="219" xMax="453" yMax="424">
      <component glyphName="glyph00042" x="0" y="0" flags="0x1204"/>
    </TTGlyph>
    <TTGlyph name="glyph00109" xMin="-30" yMin="0" xMax="593" yMax="274">
      <component glyphName="glyph00043" x="0" y="0" flags="0x1204"/>
    </TTGlyph>
    <TTGlyph name="glyph00110" xMin="-310" yMin="-58" xMax="274" yMax="701">
      <component glyphName="glyph00044" x="0" y="0" flags="0x1204"/>
    </TTGlyph>
    <TTGlyph name="glyph00111" xMin="63" yMin="128" xMax="465" yMax="597">
      <component glyphName="glyph00045" x="0" y="0" flags="0x1204"/>
    </TTGlyph>
    <TTGlyph name="glyph00112" xMin="-9" yMin="128" xMax="465" yMax="948">
      <component glyphName="glyph00045" x="0" y="0" flags="0x1204"/>
      <component glyphName="glyph00142" x="109" y="269" flags="0x1004"/>
    </TTGlyph>
    <TTGlyph name="glyph00113" xMin="-59" yMin="-2" xMax="251" yMax="690">
      <component glyphName="glyph00046" x="0" y="0" flags="0x1204"/>
    </TTGlyph>
    <TTGlyph name="glyph00114" xMin="-25" yMin="-80" xMax="308" yMax="197">
      <component glyphName="glyph00047" x="0" y="0" flags="0x1204"/>
    </TTGlyph>
    <TTGlyph name="glyph00115" xMin="-30" yMin="0" xMax="593" yMax="274">
      <component glyphName="glyph00048" x="0" y="0" flags="0x1204"/>
    </TTGlyph>
    <TTGlyph name="glyph00116" xMin="48" yMin="-508" xMax="752" yMax="240">
      <component glyphName="glyph00050" x="0" y="0" flags="0x1204"/>
    </TTGlyph>
    <TTGlyph name="glyph00117" xMin="-98" yMin="390" xMax="196" yMax="768">
      <component glyphName="glyph00051" x="0" y="0" flags="0x1204"/>
    </TTGlyph>
    <TTGlyph name="glyph00118" xMin="-3" yMin="-3" xMax="547" yMax="280">
      <component glyphName="glyph00054" x="0" y="0" flags="0x1204"/>
    </TTGlyph>
    <TTGlyph name="glyph00119" xMin="-22" yMin="-27" xMax="567" yMax="297">
      <component glyphName="glyph00055" x="0" y="0" flags="0x1204"/>
    </TTGlyph>
    <TTGlyph name="glyph00120" xMin="-30" yMin="0" xMax="593" yMax="274">
      <component glyphName="glyph00056" x="0" y="0" flags="0x1204"/>
    </TTGlyph>
    <TTGlyph name="glyph00121" xMin="-42" yMin="179" xMax="672" yMax="575">
      <component glyphName="glyph00057" x="0" y="0" flags="0x1204"/>
    </TTGlyph>
    <TTGlyph name="glyph00122" xMin="48" yMin="-508" xMax="752" yMax="240">
      <component glyphName="glyph00058" x="0" y="0" flags="0x1204"/>
    </TTGlyph>
    <TTGlyph name="glyph00123" xMin="-16" yMin="198" xMax="423" yMax="546">
      <component glyphName="glyph00059" x="0" y="0" flags="0x1204"/>
    </TTGlyph>
    <TTGlyph name="glyph00124" xMin="-73" yMin="182" xMax="453" yMax="416">
      <component glyphName="glyph00061" x="0" y="0" flags="0x1204"/>
    </TTGlyph>
    <TTGlyph name="glyph00125" xMin="-39" yMin="0" xMax="315" yMax="242">
      <component glyphName="glyph00062" x="0" y="0" flags="0x1204"/>
    </TTGlyph>
    <TTGlyph name="glyph00126" xMin="-86" yMin="206" xMax="209" yMax="545">
      <component glyphName="glyph00063" x="0" y="0" flags="0x1204"/>
    </TTGlyph>
    <TTGlyph name="glyph00127" xMin="-26" yMin="-10" xMax="312" yMax="341">
      <component glyphName="glyph00064" x="0" y="0" flags="0x1204"/>
    </TTGlyph>
    <TTGlyph name="glyph00128" xMin="-59" yMin="147" xMax="90" yMax="777">
      <component glyphName="glyph00065" x="0" y="0" flags="0x1204"/>
    </TTGlyph>
    <TTGlyph name="glyph00129" xMin="22" yMin="-511" xMax="373" yMax="209">
      <component glyphName="glyph00066" x="0" y="0" flags="0x1204"/>
    </TTGlyph>
    <TTGlyph name="glyph00130" xMin="-34" yMin="-23" xMax="105" yMax="662">
      <component glyphName="glyph00067" x="0" y="0" flags="0x1204"/>
    </TTGlyph>
    <TTGlyph name="glyph00131" xMin="-32" yMin="-25" xMax="279" yMax="661">
      <component glyphName="glyph00068" x="0" y="0" flags="0x1204"/>
    </TTGlyph>
    <TTGlyph name="glyph00132" xMin="-325" yMin="-48" xMax="252" yMax="663">
      <component glyphName="glyph00069" x="0" y="0" flags="0x1204"/>
    </TTGlyph>
    <TTGlyph name="glyph00133" xMin="48" yMin="-357" xMax="659" yMax="665">
      <component glyphName="glyph00070" x="0" y="0" flags="0x1204"/>
    </TTGlyph>
    <TTGlyph name="glyph00134" xMin="-36" yMin="-73" xMax="228" yMax="697">
      <component glyphName="glyph00071" x="0" y="0" flags="0x1204"/>
    </TTGlyph>
    <TTGlyph name="glyph00135" xMin="-325" yMin="-61" xMax="246" yMax="663">
      <component glyphName="glyph00072" x="0" y="0" flags="0x1204"/>
    </TTGlyph>
    <TTGlyph name="glyph00136" xMin="-32" yMin="-62" xMax="234" yMax="661">
      <component glyphName="glyph00073" x="0" y="0" flags="0x1204"/>
    </TTGlyph>
    <TTGlyph name="glyph00137" xMin="48" yMin="-357" xMax="625" yMax="665">
      <component glyphName="glyph00074" x="0" y="0" flags="0x1204"/>
    </TTGlyph>
    <TTGlyph name="glyph00138" xMin="-70" yMin="-24" xMax="335" yMax="663">
      <component glyphName="glyph00075" x="0" y="0" flags="0x1204"/>
    </TTGlyph>
    <TTGlyph name="glyph00139" xMin="-70" yMin="-62" xMax="297" yMax="663">
      <component glyphName="glyph00076" x="0" y="0" flags="0x1204"/>
    </TTGlyph>
    <TTGlyph name="glyph00140" xMin="-78" yMin="172" xMax="546" yMax="477">
      <component glyphName="glyph00052" x="0" y="0" flags="0x1204"/>
    </TTGlyph>
    <TTGlyph name="glyph00141" xMin="-42" yMin="0" xMax="548" yMax="271">
      <component glyphName="glyph00053" x="0" y="0" flags="0x1204"/>
    </TTGlyph>
    <TTGlyph name="glyph00142" xMin="-118" yMin="422" xMax="111" yMax="679">
      <component glyphName="glyph00007" x="0" y="0" flags="0x1204"/>
    </TTGlyph>
    <TTGlyph name="period" xMin="47" yMin="-11" xMax="154" yMax="97">
      <contour>
        <pt x="47" y="44" on="1"/>
        <pt x="47" y="66" on="0"/>
        <pt x="80" y="97" on="0"/>
        <pt x="102" y="97" on="1"/>
        <pt x="124" y="97" on="0"/>
        <pt x="154" y="66" on="0"/>
        <pt x="154" y="44" on="1"/>
        <pt x="154" y="22" on="0"/>
        <pt x="124" y="-11" on="0"/>
        <pt x="102" y="-11" on="1"/>
        <pt x="80" y="-11" on="0"/>
        <pt x="47" y="22" on="0"/>
      </contour>
    </TTGlyph>
    <TTGlyph name="uni0623" xMin="0" yMin="-5" xMax="229" yMax="1011">
      <component glyphName="glyph00009" x="12" y="0" flags="0x1004"/>
      <component glyphName="glyph00142" x="118" y="332" flags="0x1004"/>
    </TTGlyph>
    <TTGlyph name="uni0627" xMin="58" yMin="-5" xMax="177" yMax="719">
      <component glyphName="glyph00009" x="0" y="0" flags="0x1204"/>
    </TTGlyph>
    <TTGlyph name="uni062D" xMin="28" yMin="-534" xMax="759" yMax="261">
      <component glyphName="glyph00012" x="0" y="0" flags="0x1204"/>
    </TTGlyph>
    <TTGlyph name="uni0644" xMin="62" yMin="-65" xMax="547" yMax="751">
      <component glyphName="glyph00016" x="0" y="0" flags="0x1204"/>
    </TTGlyph>
    <TTGlyph name="uni0645" xMin="56" yMin="-517" xMax="390" yMax="339">
      <component glyphName="glyph00020" x="0" y="0" flags="0x1204"/>
    </TTGlyph>
</ttFont>
